<svg width="1200" height="1201" viewBox="0 0 1200 1201" fill="none" xmlns="http://www.w3.org/2000/svg">
<g clip-path="url(#clip0_179_588)">
<path d="M1007.8 825.823C1026.78 833.764 1046.99 839.906 1068.75 843.615C1007.37 716.196 1050.72 436.903 817.331 335.852C636.128 340.646 707.608 985.453 996.634 904.215C980.507 897.85 968.571 886.913 959.766 873.09C986.141 878.11 1016.25 877.285 1050.72 867.623C1030.58 859.682 1016.85 844.776 1007.8 825.823Z" fill="#2E2319"/>
<path d="M342.911 335.852C134.138 567.955 192.624 716.196 131.25 843.615C153.257 839.831 173.541 833.576 192.377 825.488C183.293 844.626 169.524 859.645 149.278 867.623C183.75 877.285 213.857 878.11 240.197 873.09C231.428 886.913 219.456 897.85 203.364 904.215C492.388 985.453 523.483 340.646 342.911 335.852Z" fill="#2E2319"/>
<path d="M200.025 582.313C249.829 588.392 285.754 756.63 254.481 801.013C250.086 807.24 224.413 817.127 205.408 777.943C194.861 756.263 164.466 738.135 155.053 693.384C142.969 636.036 150.512 576.27 200.025 582.313Z" fill="#FFD8B4"/>
<path d="M201.379 614.576C214.38 618.677 228.553 638.672 236.242 671.852C190.832 662 202.185 738.319 241.626 739.747C241.296 747.437 240.784 755.347 239.831 763.623C220.824 735.791 201.525 746.96 182.374 705.506C165.124 668.152 169.226 604.395 201.379 614.576Z" fill="#DEB38A"/>
<path d="M999.939 582.313C950.171 588.392 914.209 756.63 945.557 801.013C949.914 807.24 975.585 817.127 994.629 777.943C1005.18 756.263 1035.53 738.135 1044.95 693.385C1057.03 636.036 1049.49 576.235 999.939 582.313Z" fill="#FFD8B4"/>
<path d="M963.793 671.741C971.484 638.636 985.62 618.677 998.584 614.576C1030.77 604.359 1034.88 668.153 1017.63 705.506C998.511 746.961 979.176 735.791 960.169 763.624C959.216 755.31 958.704 747.401 958.374 739.71C997.412 737.843 1008.62 662.477 963.793 671.741Z" fill="#DEB38A"/>
<path d="M600.037 150C327.941 150 196.837 355.849 213.281 642.079C216.577 699.647 252.246 831.227 285.975 898.609C345.519 1017.55 500.94 1106.25 600 1106.25C698.987 1106.25 854.589 1017.55 914.062 898.609C947.827 831.227 983.496 699.647 986.756 642.079C1003.24 355.849 872.132 150 600.037 150Z" fill="#FFD8B4"/>
<path d="M663.428 802.918C656.726 798.231 640.943 805.446 600 805.446C559.058 805.446 543.274 798.231 536.535 802.918C528.516 808.594 541.333 834.156 600 834.156C658.667 834.156 671.522 808.594 663.428 802.918Z" fill="#DEB38A"/>
<path d="M600 894.14C538.659 876.086 447.729 902.711 447.729 902.711C482.336 940.43 507.714 989.319 600 989.319C705.688 989.319 723.707 933.765 752.306 902.711C752.306 902.711 661.303 876.013 600 894.14Z" fill="#DEB38A"/>
<path d="M470.544 909.083C534.887 963.062 664.746 963.392 729.456 909.083C660.9 912.013 539.612 912.049 470.544 909.083Z" fill="white"/>
<path d="M541.333 662.88C543.566 680.347 531.739 701.038 498.926 716.529C478.088 726.416 434.728 738.026 377.783 714.002C352.258 703.236 327.392 669.69 329.627 651.161C360.499 592.969 512.439 584.437 541.333 662.88Z" fill="white"/>
<path d="M438.244 602.016C471.204 602.016 497.936 628.748 497.936 661.708C497.936 694.667 471.204 721.399 438.244 721.399C405.249 721.399 378.553 694.667 378.553 661.708C378.553 628.748 405.249 602.016 438.244 602.016Z" fill="url(#paint0_linear_179_588)"/>
<path d="M408.398 660.609C408.398 701.918 468.09 701.918 468.09 660.609C468.09 622.266 408.398 622.266 408.398 660.609Z" fill="#1A1626"/>
<path d="M399.352 643.909C399.352 661.194 424.365 661.194 424.365 643.909C424.365 627.833 399.352 627.833 399.352 643.909Z" fill="#AB968C"/>
<path d="M541.626 665.186C517.382 587.258 352.112 598.755 329.627 651.161C337.939 584.108 520.972 566.383 541.626 665.186Z" fill="#DEB38A"/>
<path d="M658.704 662.88C656.434 680.347 668.299 701.038 701.111 716.529C721.912 726.416 765.272 738.026 822.253 714.002C847.777 703.236 872.644 669.69 870.411 651.161C839.574 592.969 687.561 584.437 658.704 662.88Z" fill="white"/>
<path d="M760.436 602.016C793.432 602.016 820.166 628.748 820.166 661.708C820.166 694.667 793.432 721.399 760.436 721.399C727.477 721.399 700.744 694.667 700.744 661.708C700.744 628.748 727.477 602.016 760.436 602.016Z" fill="url(#paint1_linear_179_588)"/>
<path d="M730.628 660.609C730.628 701.918 790.32 701.918 790.32 660.609C790.32 622.266 730.628 622.266 730.628 660.609Z" fill="#1A1626"/>
<path d="M721.545 643.909C721.545 661.194 746.557 661.194 746.557 643.909C746.557 627.833 721.545 627.833 721.545 643.909Z" fill="#AB968C"/>
<path d="M658.41 665.186C682.616 587.293 847.778 598.463 870.411 651.161C862.024 584.108 679.065 566.383 658.41 665.186Z" fill="#DEB38A"/>
<path d="M874.256 569.861C822.913 537.452 719.494 528.004 678.992 544.629C670.313 547.779 673.168 574.914 680.383 572.901C736.194 556.202 822.949 562.5 870.996 589.564C877.442 593.117 882.092 574.403 874.256 569.861Z" fill="#826D58"/>
<path d="M325.708 569.861C377.087 537.452 480.469 528.004 521.008 544.629C529.65 547.779 526.832 574.914 519.617 572.901C463.697 556.239 377.087 562.5 328.931 589.564C322.558 593.117 317.908 574.403 325.708 569.861Z" fill="#826D58"/>
<path d="M882.276 223.352C874.476 171.461 789.332 93.75 596.557 93.75C236.608 93.75 38.5987 442.018 235.95 758.533C227.966 548.511 368.042 400.123 555.506 335.01C500.318 369.69 447.473 415.967 400.343 483.094C490.796 433.033 599.048 409.095 690.784 385.841C667.785 419.679 641.454 455.181 603.662 491.325C693.531 479.644 804.09 443.994 859.496 378.039C952.112 488.344 986.353 612.744 964.087 758.46C1122.14 492.041 1012.5 249.977 882.276 223.352Z" fill="#403429"/>
<path d="M628.954 304.009C455.083 335.852 211.905 486.246 235.95 758.533C263.676 563.291 307.592 460.335 628.954 304.009Z" fill="#2E2319"/>
<path d="M603.662 93.75C736.331 93.75 871.487 139.956 882.276 223.352C564.848 273.923 321.621 342.69 208.089 605.775C180.472 415.402 312.502 304.009 312.502 304.009C312.502 304.009 213.585 382.32 174.816 483.656C197.749 278.199 298.832 93.75 603.662 93.75Z" fill="#4F4236"/>
<path d="M232.164 336.619C331.237 71.6008 664.095 113.269 664.095 113.269C664.095 113.269 374.342 162.22 232.164 336.619Z" fill="#635547"/>
<path d="M255.315 467.106C388.299 86.5951 801.677 178.536 801.677 178.536C801.677 178.536 425.216 212.576 255.315 467.106Z" fill="#635547"/>
<path d="M536.121 415.403C644.121 348.371 804.634 233.408 804.634 233.408C804.634 233.408 696.952 386.563 536.121 415.403Z" fill="#635547"/>
<path d="M882.276 223.352C882.276 223.352 1074.03 282.066 1012.55 631.787C1011.21 604.969 1008.05 580.15 1003.82 556.778C1004.21 598.307 998.882 643.886 985.162 693.696C967.181 462.467 851.736 349.586 851.736 349.586L882.276 223.352Z" fill="#4F4236"/>
<path d="M864.874 363.392C864.874 363.392 1018.36 500.893 964.088 758.46C988.138 516.715 859.496 378.04 859.496 378.04L864.874 363.392Z" fill="#2E2319"/>
<path d="M993.023 553.627C975.947 416.97 854.286 273.922 854.286 273.922C854.286 273.922 1024.05 296.987 993.023 553.627Z" fill="#635547"/>
<path d="M882.274 223.352C929.758 456.049 700.099 491.325 603.662 491.325C710.552 393.405 734.769 261.831 882.274 223.352Z" fill="#403429"/>
<path d="M885.954 254.038C881.385 387.311 814.157 470.876 603.662 491.325C768.304 503.312 911.246 414.105 885.954 254.038Z" fill="#2E2319"/>
<path d="M882.276 223.352C789.848 426.143 621.488 369.692 400.343 483.094C561.919 236.726 882.276 223.352 882.276 223.352Z" fill="#403429"/>
<path d="M760.161 348.549C629.158 406.652 557.132 387.836 400.343 483.094C569.434 410.119 660.319 423.152 760.161 348.549Z" fill="#2E2319"/>
<path d="M882.276 223.352C790.32 391.856 560.942 360.658 455.083 429.409C611.722 207.924 882.276 223.352 882.276 223.352Z" fill="#4F4236"/>
<path d="M835.408 216.127C736.787 319.041 541.596 379.052 541.596 379.052C541.596 379.052 685.618 226.183 835.408 216.127Z" fill="#635547"/>
<path d="M882.274 223.354C882.274 223.354 888.662 425.458 603.662 491.325C700.744 373.219 742.967 286.832 882.274 223.354Z" fill="#4F4236"/>
<path d="M689.475 429.099C765.272 365.621 839.344 244.138 839.344 244.138C839.344 244.138 838.629 385.798 689.475 429.099Z" fill="#635547"/>
</g>
<defs>
<linearGradient id="paint0_linear_179_588" x1="438.241" y1="721.402" x2="438.241" y2="602.019" gradientUnits="userSpaceOnUse">
<stop stop-color="#A6694A"/>
<stop offset="1" stop-color="#4F2A1E"/>
</linearGradient>
<linearGradient id="paint1_linear_179_588" x1="760.451" y1="721.402" x2="760.451" y2="602.019" gradientUnits="userSpaceOnUse">
<stop stop-color="#A6694A"/>
<stop offset="1" stop-color="#4F2A1E"/>
</linearGradient>
<clipPath id="clip0_179_588">
<rect width="1200" height="1200" fill="white" transform="translate(0 0.349121)"/>
</clipPath>
</defs>
</svg>
