<?xml version="1.0" encoding="utf-8"?>
<!-- Generator: Adobe Illustrator 15.0.0, SVG Export Plug-In . SVG Version: 6.00 Build 0)  -->
<!DOCTYPE svg PUBLIC "-//W3C//DTD SVG 1.1//EN" "http://www.w3.org/Graphics/SVG/1.1/DTD/svg11.dtd" [
	<!ENTITY ns_flows "http://ns.adobe.com/Flows/1.0/">
	<!ENTITY ns_extend "http://ns.adobe.com/Extensibility/1.0/">
	<!ENTITY ns_ai "http://ns.adobe.com/AdobeIllustrator/10.0/">
	<!ENTITY ns_graphs "http://ns.adobe.com/Graphs/1.0/">
]>
<svg version="1.1" id="Layer_1" xmlns:x="&ns_extend;" xmlns:i="&ns_ai;" xmlns:graph="&ns_graphs;"
	 xmlns="http://www.w3.org/2000/svg" xmlns:xlink="http://www.w3.org/1999/xlink" xmlns:a="http://ns.adobe.com/AdobeSVGViewerExtensions/3.0/"
	 x="0px" y="0px" width="64px" height="64px" viewBox="0 0 64 64" enable-background="new 0 0 64 64" xml:space="preserve">
<path fill="#0174A8" d="M58.324,43.088c-1.645-0.883-8.139-3.373-10.33-4.188c0-1.042,0-2.169,0-3.104h0.008
	c1.857-1.503,3.637-3.44,4.379-4.909c0.459-0.91,0.928-2.43,1.342-4.081c2.893-0.438,4.949-9.635,1.328-9.346
	C54.879,8.35,50.137,2,41.002,2c-9.138,0-13.878,6.35-14.05,15.46c-3.623-0.291-1.564,8.907,1.329,9.346
	c0.413,1.651,0.882,3.171,1.341,4.081c0.742,1.469,2.521,3.408,4.38,4.909h0.004c0,0.944,0,2.08,0,3.128
	c-2.232,0.831-8.644,3.295-10.283,4.166C20.678,44.707,20,49.787,20,51.884c0,2.821,42,2.821,42,0
	C62,49.791,61.361,44.709,58.324,43.088z"/>
<linearGradient id="SVGID_1_" gradientUnits="userSpaceOnUse" x1="2" y1="36" x2="44" y2="36">
	<stop  offset="0" style="stop-color:#0085D4"/>
	<stop  offset="0.1942" style="stop-color:#0B90DF"/>
	<stop  offset="0.69" style="stop-color:#22A7F6"/>
	<stop  offset="1" style="stop-color:#2BB0FF"/>
	<a:midPointStop  offset="0" style="stop-color:#0085D4"/>
	<a:midPointStop  offset="0.3962" style="stop-color:#0085D4"/>
	<a:midPointStop  offset="1" style="stop-color:#2BB0FF"/>
</linearGradient>
<path fill="url(#SVGID_1_)" d="M40.324,51.088c-1.645-0.882-8.138-3.374-10.33-4.188c0-1.043,0-2.169,0-3.104h0.007
	c1.858-1.502,3.637-3.439,4.379-4.908c0.459-0.91,0.928-2.43,1.342-4.082c2.893-0.438,4.949-9.634,1.328-9.345
	C36.879,16.351,32.137,10,23.001,10c-9.138,0-13.877,6.351-14.049,15.461c-3.624-0.291-1.564,8.907,1.329,9.345
	c0.413,1.652,0.882,3.172,1.341,4.082c0.742,1.469,2.521,3.408,4.38,4.909h0.003c0,0.943,0,2.08,0,3.127
	c-2.231,0.831-8.643,3.296-10.283,4.166C2.678,52.707,2,57.788,2,59.885c0,2.82,42,2.82,42,0C44,57.791,43.361,52.71,40.324,51.088z
	"/>
</svg>
