<svg width="1200" height="1201" viewBox="0 0 1200 1201" fill="none" xmlns="http://www.w3.org/2000/svg">
<g clip-path="url(#clip0_179_587)">
<path d="M242.505 602.062C93.75 792.27 246.99 1001.65 120.116 1068.91C345.381 1225.51 541.331 854.719 242.505 602.062Z" fill="#2E2319"/>
<path d="M242.505 602.062C-59.1806 801.428 206.031 982.995 120.116 1068.91C235.941 1111.02 360.159 984.825 242.505 602.062Z" fill="#4F4236"/>
<path d="M242.503 602.062C160.159 766.489 343.755 1064.93 120.116 1068.91C280.967 1139.73 408.398 978.99 242.503 602.062Z" fill="#403429"/>
<path d="M149.038 1047.38C216.465 984.503 34.6294 770.792 246.99 634.897C93.1312 788.004 269.286 999.182 149.038 1047.38Z" fill="#635547"/>
<path d="M957.495 602.062C1106.25 792.27 953.01 1001.65 1079.88 1068.91C854.621 1225.51 658.671 854.719 957.495 602.062Z" fill="#2E2319"/>
<path d="M957.495 602.062C1259.18 801.428 993.969 982.995 1079.88 1068.91C964.057 1111.02 839.839 984.825 957.495 602.062Z" fill="#4F4236"/>
<path d="M957.495 602.062C1039.84 766.489 856.245 1064.93 1079.88 1068.91C919.031 1139.73 791.602 978.99 957.495 602.062Z" fill="#403429"/>
<path d="M1050.96 1047.38C983.535 984.503 1165.37 770.792 953.01 634.897C1106.87 788.004 930.714 999.182 1050.96 1047.38Z" fill="#635547"/>
<path d="M600 93.75C282.861 93.9319 82.1044 372.911 205.627 731.25H994.372C1117.9 372.911 917.102 93.9319 600 93.75Z" fill="#403429"/>
<path d="M200.025 582.311C249.829 588.39 285.754 756.628 254.481 801.013C250.086 807.238 224.413 817.125 205.408 777.941C194.861 756.261 164.466 738.133 155.053 693.382C142.969 636.034 150.512 576.268 200.025 582.311Z" fill="#FFD8B4"/>
<path d="M201.379 614.575C214.38 618.675 228.553 638.672 236.242 671.85C190.832 661.999 202.185 738.317 241.626 739.746C241.296 747.435 240.784 755.346 239.831 763.622C220.824 735.79 201.525 746.959 182.374 705.504C165.124 668.151 169.226 604.393 201.379 614.575Z" fill="#DEB38A"/>
<path d="M999.939 582.311C950.171 588.39 914.209 756.628 945.557 801.013C949.914 807.238 975.585 817.125 994.629 777.941C1005.18 756.261 1035.53 738.133 1044.95 693.383C1057.03 636.034 1049.49 576.233 999.939 582.311Z" fill="#FFD8B4"/>
<path d="M963.793 671.739C971.484 638.634 985.62 618.675 998.584 614.574C1030.77 604.357 1034.88 668.151 1017.63 705.504C998.511 746.959 979.176 735.789 960.169 763.622C959.216 755.31 958.704 747.399 958.374 739.708C997.412 737.841 1008.62 662.475 963.793 671.739Z" fill="#DEB38A"/>
<path d="M600.037 150C327.941 150 196.837 355.847 213.281 642.077C216.577 699.645 252.246 831.225 285.975 898.607C345.519 1017.55 500.94 1106.25 600 1106.25C698.987 1106.25 854.589 1017.55 914.062 898.607C947.827 831.225 983.496 699.645 986.756 642.077C1003.24 355.847 872.132 150 600.037 150Z" fill="#FFD8B4"/>
<path d="M663.428 802.916C656.726 798.229 640.943 805.444 600 805.444C559.058 805.444 543.274 798.229 536.535 802.916C528.516 808.594 541.333 834.154 600 834.154C658.667 834.154 671.522 808.594 663.428 802.916Z" fill="#DEB38A"/>
<path d="M600 894.141C538.659 876.086 447.729 902.709 447.729 902.709C482.336 940.429 507.714 989.318 600 989.318C705.688 989.318 723.707 933.763 752.306 902.709C752.306 902.709 661.303 876.013 600 894.141Z" fill="#DEB38A"/>
<path d="M470.544 909.081C534.887 963.06 664.746 963.39 729.456 909.081C660.9 912.011 539.612 912.047 470.544 909.081Z" fill="white"/>
<path d="M541.333 662.878C543.566 680.346 531.739 701.036 498.926 716.528C478.087 726.414 434.728 738.024 377.782 714C352.258 703.234 327.392 669.688 329.627 651.159C360.499 592.969 512.439 584.436 541.333 662.878Z" fill="white"/>
<path d="M438.244 602.014C471.204 602.014 497.936 628.747 497.936 661.706C497.936 694.665 471.204 721.399 438.244 721.399C405.249 721.399 378.553 694.665 378.553 661.706C378.553 628.747 405.249 602.014 438.244 602.014Z" fill="url(#paint0_linear_179_587)"/>
<path d="M408.397 660.607C408.397 701.916 468.09 701.916 468.09 660.607C468.09 622.266 408.397 622.266 408.397 660.607Z" fill="#1A1626"/>
<path d="M399.353 643.907C399.353 661.192 424.365 661.192 424.365 643.907C424.365 627.831 399.353 627.831 399.353 643.907Z" fill="#AB968C"/>
<path d="M541.626 665.184C517.382 587.256 352.112 598.753 329.627 651.159C337.939 584.106 520.972 566.381 541.626 665.184Z" fill="#DEB38A"/>
<path d="M658.704 662.878C656.434 680.346 668.299 701.036 701.111 716.528C721.913 726.414 765.272 738.024 822.253 714C847.778 703.234 872.644 669.688 870.411 651.159C839.574 592.969 687.561 584.436 658.704 662.878Z" fill="white"/>
<path d="M760.436 602.014C793.432 602.014 820.166 628.747 820.166 661.706C820.166 694.665 793.432 721.399 760.436 721.399C727.477 721.399 700.744 694.665 700.744 661.706C700.744 628.747 727.477 602.014 760.436 602.014Z" fill="url(#paint1_linear_179_587)"/>
<path d="M730.627 660.607C730.627 701.916 790.32 701.916 790.32 660.607C790.32 622.266 730.627 622.266 730.627 660.607Z" fill="#1A1626"/>
<path d="M721.545 643.907C721.545 661.192 746.557 661.192 746.557 643.907C746.557 627.831 721.545 627.831 721.545 643.907Z" fill="#AB968C"/>
<path d="M658.41 665.184C682.616 587.291 847.777 598.461 870.411 651.159C862.024 584.106 679.065 566.381 658.41 665.184Z" fill="#DEB38A"/>
<path d="M873.403 584.347C835.071 545.201 764.831 519.028 681.082 542.194C672.182 544.656 672.759 572.392 680.001 570.516C756.555 550.669 820.506 563.169 868.438 603.692C874.059 608.443 879.741 590.818 873.403 584.347Z" fill="#826D58"/>
<path d="M326.64 584.347C364.974 545.201 435.212 519.028 518.962 542.194C527.861 544.656 527.286 572.392 520.042 570.516C443.49 550.669 379.538 563.169 331.605 603.692C325.984 608.443 320.304 590.818 326.64 584.347Z" fill="#826D58"/>
<path d="M599.889 103.125C440.406 103.088 303.457 192.579 241.626 299.424C185.306 396.744 174.206 568.614 224.743 709.68C231.298 574.328 306.336 506.175 301.757 357.238C750 357.238 933.816 501.647 975 709.68C1076.77 425.537 916.517 103.125 599.889 103.125Z" fill="#403429"/>
<path d="M591.383 103.219C431.899 103.219 303.458 192.579 241.626 299.424C185.306 396.744 161.723 521.569 224.743 709.68C192.431 502.232 281.254 339.731 281.254 339.731C716.938 292.466 928.536 485.241 975 709.68C985.138 633.098 975.193 277.819 578.91 247.018C873.638 220.397 975 367.026 982.031 587.364C1060.55 300.394 804.218 103.219 591.383 103.219Z" fill="#4F4236"/>
<path d="M975 709.68C886.723 325.669 266.181 359.151 266.181 359.151C266.181 359.151 921.684 286.607 975 709.68Z" fill="#2E2319"/>
<path d="M224.743 709.68C219.03 549.609 303.699 477.538 294.617 312.304C329.627 469.335 254.186 547.266 224.743 709.68Z" fill="#2E2319"/>
<path d="M982.031 587.364C1017.81 46.4717 182.079 46.4717 217.858 587.364C249.022 133.08 950.867 133.08 982.031 587.364Z" fill="#CFD8DD"/>
<path d="M982.031 569.859C1017.81 28.9668 182.079 28.9668 217.858 569.859C249.022 115.575 950.867 115.575 982.031 569.859Z" fill="white"/>
<path d="M222.519 367.026C382.007 14.0589 713.661 150.767 713.661 150.767C713.661 150.767 400.331 71.4883 222.519 367.026Z" fill="#635547"/>
<path d="M905.473 485.044C746.558 312.304 497.936 281.919 497.936 281.919C497.936 281.919 785.942 240.514 905.473 485.044Z" fill="#635547"/>
</g>
<defs>
<linearGradient id="paint0_linear_179_587" x1="438.241" y1="721.402" x2="438.241" y2="602.019" gradientUnits="userSpaceOnUse">
<stop stop-color="#A6694A"/>
<stop offset="1" stop-color="#4F2A1E"/>
</linearGradient>
<linearGradient id="paint1_linear_179_587" x1="760.451" y1="721.402" x2="760.451" y2="602.019" gradientUnits="userSpaceOnUse">
<stop stop-color="#A6694A"/>
<stop offset="1" stop-color="#4F2A1E"/>
</linearGradient>
<clipPath id="clip0_179_587">
<rect width="1200" height="1200" fill="white" transform="translate(0 0.349121)"/>
</clipPath>
</defs>
</svg>
