<svg width="128" height="129" viewBox="0 0 128 129" fill="none" xmlns="http://www.w3.org/2000/svg">
<path d="M127.912 9.8274C128.715 17.8479 123.997 30.2829 114.637 44.8586C114.202 45.5363 113.554 46.0526 112.799 46.3318C109.407 47.5851 106.233 43.6878 107.864 40.4613C111.514 33.2403 113.244 27.1128 112.804 22.7197C112.177 16.4495 107.175 14.1495 98.7492 16.2568C90.3232 18.3641 79.0606 24.7318 67.1021 34.1498C55.1432 43.5677 43.3218 55.3794 33.8844 67.3401C24.4474 79.3008 18.0514 90.5767 15.9132 99.0249C13.7751 107.473 16.0434 112.505 22.2864 113.163C28.5298 113.822 38.3132 110.062 49.7776 102.598C55.4092 98.9311 55.8689 91.0368 51.117 86.2849L48.321 83.489C46.9147 82.0827 46.9147 79.8026 48.321 78.3963C49.7273 76.99 52.0074 76.99 53.4137 78.3963L57.5049 82.4876C62.1343 87.1169 69.5652 87.4579 74.3209 82.9584C77.2617 80.176 80.1532 77.279 82.9568 74.3007C83.8715 73.329 85.2879 73.0098 86.5244 73.5119C88.5957 74.3529 89.1883 77.0031 87.6459 78.6213C85.1974 81.1901 82.7007 83.7101 80.1705 86.1686C74.9513 91.2401 74.6814 99.664 79.8273 104.81C81.2337 106.216 81.2384 108.501 79.832 109.908C78.4257 111.314 76.1455 111.314 74.7393 109.907L72.9457 108.114C68.3413 103.509 61.013 103.207 55.8047 107.115C52.2922 109.751 48.8034 112.201 45.3747 114.433C30.3615 124.208 17.5494 129.132 9.37353 128.269C1.19724 127.407 -1.77304 120.818 1.02756 109.754C3.82772 98.6906 12.2031 83.924 24.5617 68.2607C36.9206 52.5974 52.4015 37.1292 68.0622 24.7957C83.7228 12.4623 98.4718 4.12339 109.506 1.36378C120.54 -1.39584 127.091 1.61615 127.912 9.8274Z" fill="black"/>
<path d="M127.912 9.8274C128.715 17.8479 123.997 30.2829 114.637 44.8586C114.202 45.5363 113.554 46.0526 112.799 46.3318C109.407 47.5851 106.233 43.6878 107.864 40.4613C111.514 33.2403 113.244 27.1128 112.804 22.7197C112.177 16.4495 107.175 14.1495 98.7492 16.2568C90.3232 18.3641 79.0606 24.7318 67.1021 34.1498C55.1432 43.5677 43.3218 55.3794 33.8844 67.3401C24.4474 79.3008 18.0514 90.5767 15.9132 99.0249C13.7751 107.473 16.0434 112.505 22.2864 113.163C28.5298 113.822 38.3132 110.062 49.7776 102.598C55.4092 98.9311 55.8689 91.0368 51.117 86.2849L48.321 83.489C46.9147 82.0827 46.9147 79.8026 48.321 78.3963C49.7273 76.99 52.0074 76.99 53.4137 78.3963L57.5049 82.4876C62.1343 87.1169 69.5652 87.4579 74.3209 82.9584C77.2617 80.176 80.1532 77.279 82.9568 74.3007C83.8715 73.329 85.2879 73.0098 86.5244 73.5119C88.5957 74.3529 89.1883 77.0031 87.6459 78.6213C85.1974 81.1901 82.7007 83.7101 80.1705 86.1686C74.9513 91.2401 74.6814 99.664 79.8273 104.81C81.2337 106.216 81.2384 108.501 79.832 109.908C78.4257 111.314 76.1455 111.314 74.7393 109.907L72.9457 108.114C68.3413 103.509 61.013 103.207 55.8047 107.115C52.2922 109.751 48.8034 112.201 45.3747 114.433C30.3615 124.208 17.5494 129.132 9.37353 128.269C1.19724 127.407 -1.77304 120.818 1.02756 109.754C3.82772 98.6906 12.2031 83.924 24.5617 68.2607C36.9206 52.5974 52.4015 37.1292 68.0622 24.7957C83.7228 12.4623 98.4718 4.12339 109.506 1.36378C120.54 -1.39584 127.091 1.61615 127.912 9.8274Z" fill="url(#paint0_angular_3550_10435)"/>
<defs>
<radialGradient id="paint0_angular_3550_10435" cx="0" cy="0" r="1" gradientUnits="userSpaceOnUse" gradientTransform="translate(68.6875 64.3662) rotate(24.0659) scale(24.5009 24.5009)">
<stop stop-color="#F4F947"/>
<stop offset="1" stop-color="#02F7EF"/>
</radialGradient>
</defs>
</svg>
