<svg width="1020" height="402" viewBox="0 0 1020 402" fill="none" xmlns="http://www.w3.org/2000/svg">
<g clip-path="url(#clip0_428_1367)">
<g clip-path="url(#clip1_428_1367)">
<path d="M270.827 171.641C263.526 169.992 245.523 167.697 232.79 167.697C223.644 167.697 213.605 168.283 208.148 168.836C192.423 170.374 180.379 174.463 172.346 180.982C164.551 187.306 160.599 195.976 160.599 206.746C160.599 216.113 163.617 223.856 169.575 229.764C177.37 237.482 190.256 242.293 207.893 244.052H214.778V273.666L210.877 274.669C202.547 276.82 194.675 277.865 186.821 277.865C180.591 277.865 174.259 277.228 167.501 275.91C134.989 269.799 116.339 242.463 116.339 200.923C116.339 169.014 128.988 140.437 150.187 124.474C165.708 112.787 186.176 106.607 209.389 106.607C211.888 106.607 214.43 106.675 216.946 106.82C226.644 107.364 235.391 109.072 243.857 110.73C253.402 112.6 262.429 114.359 272.187 114.359C276.692 114.359 281.002 113.985 285.362 113.22C298.342 110.942 307.964 102.289 311.1 90.0916C316.243 70.0571 313.421 52.8871 302.702 39.0661C280.364 10.2936 227.681 0.0340576 185.819 0.0340576C180.209 0.0340576 174.649 0.212558 169.277 0.569558C120.13 3.80806 78.1745 23.7491 47.9485 58.2251C16.5835 93.9931 0 143.344 0 200.923C0 318.878 69.4705 401.26 168.938 401.26C180.591 401.26 196.546 401.26 213.044 398.421C229.415 395.607 239.98 392.318 250.767 386.674C275.026 374.442 292.893 355.266 303.892 329.656C314.389 305.218 316.591 279.404 316.591 262.055C316.591 221.442 311.245 199.181 298.078 185.164C290.998 177.208 277.959 173.273 270.827 171.641Z" fill="white"/>
<path d="M968.669 54.6805C935.349 18.904 888.82 0 834.131 0C827.305 0 816.459 0.2975 801.083 2.8475L800.93 2.873C777.75 5.8395 756.891 15.249 740.648 30.039C720.095 49.283 705.424 76.262 700.681 145.367C699.695 160.14 699.244 177.786 699.244 200.923C699.244 224.06 699.703 241.128 700.681 255.884C705.424 324.998 720.078 351.968 740.597 371.178C756.602 385.756 777.487 395.369 800.913 398.973C813.45 400.537 824.007 401.26 834.131 401.26C888.794 401.26 935.323 382.373 968.669 346.647C1002.24 310.675 1019.99 260.287 1019.99 200.915C1019.99 141.542 1002.24 90.712 968.66 54.672L968.669 54.6805ZM882.912 249.628C872.44 256.76 858.696 260.372 842.053 260.372C828.436 260.372 817.896 257.873 817.445 257.763L813.459 256.802V144.645L817.904 143.999C818.159 143.965 824.339 143.064 833.4 143.064C845.589 143.064 863.201 144.721 877.897 152.635C895.951 162.35 905.106 178.594 905.106 200.932C905.106 223.27 897.634 239.607 882.895 249.637L882.912 249.628Z" fill="white"/>
<path d="M500.735 0C452.863 0 411.97 19.1165 382.466 55.2925C352.827 91.6385 337.161 142.001 337.161 200.923C337.161 259.845 352.827 309.766 382.466 346.035C411.987 382.16 452.88 401.26 500.735 401.26C601.732 401.26 675.036 317.008 675.036 200.923C675.036 143.693 657.152 92.0295 624.691 55.4625C592.943 19.6945 548.922 0 500.735 0ZM537.897 232.433L506.099 292.604L474.3 232.433L414.129 200.634L474.3 168.836L506.099 108.664L537.897 168.836L598.069 200.634L537.897 232.433Z" fill="white"/>
</g>
</g>
<defs>
<clipPath id="clip0_428_1367">
<rect width="1020" height="401.26" fill="white"/>
</clipPath>
<clipPath id="clip1_428_1367">
<rect width="1020" height="401.26" fill="white"/>
</clipPath>
</defs>
</svg>
