<?xml version="1.0" encoding="utf-8"?>
<!-- Generator: Adobe Illustrator 24.1.2, SVG Export Plug-In . SVG Version: 6.00 Build 0)  -->
<svg version="1.1" id="Layer_1" xmlns="http://www.w3.org/2000/svg" xmlns:xlink="http://www.w3.org/1999/xlink" x="0px" y="0px"
	 viewBox="0 0 64 64" style="enable-background:new 0 0 64 64;" xml:space="preserve">
<style type="text/css">
	.st0{fill:url(#SVGID_1_);}
	.st1{fill:#A9D2E8;}
</style>
<radialGradient id="SVGID_1_" cx="32.7257" cy="26.3757" r="32.6231" gradientTransform="matrix(1 0 0 0.8746 -0.3916 3.3076)" gradientUnits="userSpaceOnUse">
	<stop  offset="0" style="stop-color:#F0FBFF"/>
	<stop  offset="0.4462" style="stop-color:#EEFAFE"/>
	<stop  offset="0.6283" style="stop-color:#E7F6FC"/>
	<stop  offset="0.7623" style="stop-color:#DBEFF8"/>
	<stop  offset="0.8726" style="stop-color:#C9E5F2"/>
	<stop  offset="0.9673" style="stop-color:#B3D8EB"/>
	<stop  offset="1" style="stop-color:#A9D2E8"/>
</radialGradient>
<path class="st0" d="M32,2C0.66,2-6.13,34.2,11.65,48.14C12.9,51.11,13.83,56.14,10,62c7.35-1.37,10.5-6.23,11.69-8.88
	c3.08,0.86,6.51,1.33,10.31,1.33C72,54.45,72,2,32,2z"/>
<path class="st1" d="M32,3c19.93,0,29,13.07,29,25.22s-9.08,25.22-29,25.22c-3.58,0-6.95-0.44-10.04-1.29l-0.83-0.23l-0.35,0.78
	c-1.02,2.26-3.45,6.03-8.74,7.75c2.6-5.23,1.79-9.73,0.53-12.71l-0.1-0.24l-0.2-0.16c-8.14-6.39-11.33-17.3-7.92-27.16
	C8.06,9.43,18.4,3,32,3 M32,2C0.66,2-6.13,34.2,11.65,48.14C12.9,51.11,13.83,56.14,10,62c7.35-1.37,10.5-6.23,11.69-8.88
	c3.08,0.86,6.51,1.33,10.31,1.33C72,54.45,72,2,32,2L32,2z"/>
<path class="st1" d="M21.99,29c0,1.66-1.34,3-3,3c-1.66,0-3-1.34-3-3s1.34-3,3-3C20.64,26,21.99,27.34,21.99,29z"/>
<circle class="st1" cx="32" cy="29" r="3"/>
<path class="st1" d="M48.01,29c0,1.66-1.34,3-3,3c-1.66,0-3-1.34-3-3c0-1.66,1.34-3,3-3C46.67,26,48.01,27.34,48.01,29z"/>
</svg>
