<svg width="1200" height="1200" viewBox="0 0 1200 1200" fill="none" xmlns="http://www.w3.org/2000/svg">
<g clip-path="url(#clip0_259_4003)">
<circle cx="600.5" cy="599.5" r="459.5" fill="#FCAD90"/>
<mask id="mask0_259_4003" style="mask-type:alpha" maskUnits="userSpaceOnUse" x="179" y="176" width="855" height="855">
<circle cx="606.5" cy="603.5" r="427.5" fill="white"/>
</mask>
<g mask="url(#mask0_259_4003)">
<path d="M607.432 637.923C553.384 637.923 507.116 618.679 468.627 580.19C430.138 541.701 410.894 495.433 410.894 441.385C410.894 387.337 430.138 341.069 468.627 302.58C507.116 264.091 553.384 244.847 607.432 244.847C661.48 244.847 707.749 264.091 746.237 302.58C784.726 341.069 803.971 387.337 803.971 441.385C803.971 495.433 784.726 541.701 746.237 580.19C707.749 618.679 661.48 637.923 607.432 637.923ZM214.355 1031V893.423C214.355 865.58 221.521 839.989 235.852 816.65C250.183 793.312 269.222 775.5 292.971 763.217C343.743 737.83 395.335 718.791 447.745 706.098C500.155 693.405 553.384 687.058 607.432 687.058C661.48 687.058 714.709 693.405 767.12 706.098C819.53 718.791 871.121 737.83 921.894 763.217C945.642 775.5 964.682 793.312 979.013 816.65C993.343 839.989 1000.51 865.58 1000.51 893.423V1031H214.355Z" fill="#FF6133"/>
</g>
<circle cx="919.676" cy="937.323" r="97.5824" fill="#FF6133"/>
<path d="M903.922 1015.42H934.755V953.756H996.422V922.922H934.755V861.256H903.922V922.922H842.255V953.756H903.922V1015.42ZM919.339 1092.51C898.012 1092.51 877.97 1088.46 859.214 1080.37C840.457 1072.27 824.141 1061.29 810.266 1047.41C796.391 1033.54 785.406 1017.22 777.313 998.464C769.219 979.707 765.172 959.665 765.172 938.339C765.172 917.013 769.219 896.971 777.313 878.214C785.406 859.457 796.391 843.141 810.266 829.266C824.141 815.391 840.457 804.407 859.214 796.313C877.97 788.219 898.012 784.172 919.339 784.172C940.665 784.172 960.707 788.219 979.464 796.313C998.221 804.407 1014.54 815.391 1028.41 829.266C1042.29 843.141 1053.27 859.457 1061.36 878.214C1069.46 896.971 1073.51 917.013 1073.51 938.339C1073.51 959.665 1069.46 979.707 1061.36 998.464C1053.27 1017.22 1042.29 1033.54 1028.41 1047.41C1014.54 1061.29 998.221 1072.27 979.464 1080.37C960.707 1088.46 940.665 1092.51 919.339 1092.51Z" fill="#FCAD90"/>
<path d="M614.274 576.225C598.314 587.408 580.556 593 561 593C541.444 593 523.686 587.408 507.725 576.225C491.765 565.042 480.19 550.3 473 532H649C641.81 550.3 630.235 565.042 614.274 576.225Z" fill="#FCAD90"/>
</g>
<defs>
<clipPath id="clip0_259_4003">
<rect width="1200" height="1200" fill="white"/>
</clipPath>
</defs>
</svg>
