<svg width="89" height="18" viewBox="0 0 89 18" fill="none" xmlns="http://www.w3.org/2000/svg">
<path d="M85.6117 14.0365V8.68098C85.6117 8.19118 85.4571 7.79806 85.1477 7.5016C84.8513 7.19226 84.471 7.03759 84.007 7.03759C83.6848 7.03759 83.4012 7.10848 83.1563 7.25026C82.9114 7.37916 82.7181 7.57249 82.5763 7.83028C82.4345 8.07518 82.3636 8.35875 82.3636 8.68098L81.2229 8.12029C81.2229 7.3856 81.3776 6.74113 81.6869 6.18689C81.9963 5.63265 82.4281 5.2073 82.9823 4.91084C83.5366 4.6015 84.1746 4.44683 84.8964 4.44683C85.6311 4.44683 86.2755 4.6015 86.8298 4.91084C87.384 5.2073 87.8094 5.6262 88.1058 6.16756C88.4152 6.69602 88.5698 7.31471 88.5698 8.02362V14.0365H85.6117ZM79.4055 14.0365V0H82.3636V14.0365H79.4055Z" fill="white"/>
<path d="M74.3575 14.2494C73.3908 14.2494 72.5143 14.0367 71.7281 13.6114C70.9418 13.1861 70.3231 12.5996 69.872 11.852C69.4209 11.1044 69.1953 10.2666 69.1953 9.33858C69.1953 8.39766 69.4209 7.55985 69.872 6.82515C70.336 6.07757 70.9612 5.49111 71.7474 5.06576C72.5337 4.64041 73.4166 4.42773 74.3962 4.42773C75.1309 4.42773 75.8011 4.55663 76.4069 4.81441C77.0256 5.05931 77.5734 5.4331 78.0503 5.93579L76.1556 7.83052C75.9364 7.58563 75.6787 7.40518 75.3822 7.28917C75.0986 7.17317 74.77 7.11517 74.3962 7.11517C73.9708 7.11517 73.5906 7.21184 73.2555 7.40518C72.9332 7.58563 72.6754 7.84341 72.4821 8.17854C72.3016 8.50077 72.2114 8.88101 72.2114 9.31924C72.2114 9.75748 72.3016 10.1442 72.4821 10.4793C72.6754 10.8144 72.9397 11.0786 73.2748 11.272C73.6099 11.4653 73.9837 11.562 74.3962 11.562C74.7828 11.562 75.1244 11.4975 75.4209 11.3687C75.7302 11.2269 75.9944 11.0335 76.2136 10.7886L78.089 12.6834C77.5992 13.1989 77.0449 13.5921 76.4262 13.8627C75.8075 14.1205 75.118 14.2494 74.3575 14.2494Z" fill="white"/>
<path d="M63.6145 14.0369V0.754395H66.5726V14.0369H63.6145ZM61.4878 7.15396V4.64054H68.6994V7.15396H61.4878Z" fill="white"/>
<path d="M54.7067 14.2298C53.8431 14.2298 53.0698 14.0171 52.3867 13.5918C51.7164 13.1664 51.1815 12.5864 50.7819 11.8517C50.3952 11.117 50.2019 10.2792 50.2019 9.33829C50.2019 8.39736 50.3952 7.55956 50.7819 6.82486C51.1815 6.09017 51.7164 5.51015 52.3867 5.0848C53.0698 4.65945 53.8431 4.44678 54.7067 4.44678C55.3383 4.44678 55.9054 4.56923 56.4081 4.81412C56.9237 5.05902 57.3426 5.40059 57.6648 5.83883C57.9871 6.26418 58.1675 6.75397 58.2062 7.30821V11.3684C58.1675 11.9226 57.9871 12.4188 57.6648 12.8571C57.3555 13.2824 56.943 13.6176 56.4275 13.8624C55.9119 14.1073 55.3383 14.2298 54.7067 14.2298ZM55.3061 11.5617C55.9377 11.5617 56.4468 11.3555 56.8335 10.943C57.2202 10.5177 57.4135 9.98275 57.4135 9.33829C57.4135 8.90005 57.3233 8.51337 57.1428 8.17825C56.9753 7.84312 56.7304 7.58533 56.4081 7.40488C56.0988 7.21154 55.7379 7.11487 55.3254 7.11487C54.913 7.11487 54.5456 7.21154 54.2234 7.40488C53.914 7.58533 53.6627 7.84312 53.4694 8.17825C53.2889 8.51337 53.1987 8.90005 53.1987 9.33829C53.1987 9.76364 53.2889 10.1439 53.4694 10.479C53.6498 10.8141 53.9011 11.0784 54.2234 11.2717C54.5456 11.465 54.9065 11.5617 55.3061 11.5617ZM57.2975 14.0365V11.5037L57.7422 9.22228L57.2975 6.94087V4.64012H60.1976V14.0365H57.2975Z" fill="white"/>
<path d="M34.4563 14.0365V0.386719H36.6217L41.9966 8.75835H40.8945L46.2501 0.386719H48.4348V14.0365H45.3994V5.51024L45.9407 5.64558L42.4413 11.0978H40.4305L36.9504 5.64558L37.4724 5.51024V14.0365H34.4563Z" fill="white"/>
<path d="M28.1008 14.2298C27.4692 14.2298 26.8892 14.1073 26.3607 13.8625C25.8323 13.6176 25.4005 13.2824 25.0653 12.8571C24.7302 12.4188 24.5369 11.9226 24.4853 11.3684V7.40488C24.5369 6.85064 24.7302 6.34796 25.0653 5.89683C25.4005 5.4457 25.8323 5.09125 26.3607 4.83346C26.8892 4.57567 27.4692 4.44678 28.1008 4.44678C28.9901 4.44678 29.7764 4.65945 30.4595 5.0848C31.1556 5.51015 31.6969 6.09017 32.0836 6.82486C32.4832 7.55956 32.683 8.39736 32.683 9.33829C32.683 10.2792 32.4832 11.117 32.0836 11.8517C31.6969 12.5864 31.1556 13.1664 30.4595 13.5918C29.7764 14.0171 28.9901 14.2298 28.1008 14.2298ZM27.5594 11.5617C27.9848 11.5617 28.3521 11.465 28.6615 11.2717C28.9837 11.0784 29.235 10.8141 29.4155 10.479C29.5959 10.1439 29.6862 9.76364 29.6862 9.33829C29.6862 8.90005 29.5959 8.51337 29.4155 8.17825C29.235 7.84312 28.9837 7.58534 28.6615 7.40488C28.3521 7.21154 27.9912 7.11487 27.5788 7.11487C27.1663 7.11487 26.799 7.21154 26.4767 7.40488C26.1674 7.58534 25.9225 7.84312 25.742 8.17825C25.5616 8.51337 25.4714 8.90005 25.4714 9.33829C25.4714 9.76364 25.5551 10.1439 25.7227 10.479C25.9032 10.8141 26.1545 11.0784 26.4767 11.2717C26.799 11.465 27.1599 11.5617 27.5594 11.5617ZM22.6873 17.9999V4.64012H25.6454V7.05687L25.162 9.33829L25.6067 11.6197V17.9999H22.6873Z" fill="white"/>
<path d="M15.1137 14.2298C14.2501 14.2298 13.4768 14.0171 12.7936 13.5918C12.1234 13.1664 11.5885 12.5864 11.1889 11.8517C10.8022 11.117 10.6089 10.2792 10.6089 9.33829C10.6089 8.39736 10.8022 7.55956 11.1889 6.82486C11.5885 6.09017 12.1234 5.51015 12.7936 5.0848C13.4768 4.65945 14.2501 4.44678 15.1137 4.44678C15.7453 4.44678 16.3124 4.56923 16.8151 4.81412C17.3307 5.05902 17.7496 5.40059 18.0718 5.83883C18.3941 6.26418 18.5745 6.75397 18.6132 7.30821V11.3684C18.5745 11.9226 18.3941 12.4188 18.0718 12.8571C17.7625 13.2824 17.35 13.6176 16.8344 13.8624C16.3189 14.1073 15.7453 14.2298 15.1137 14.2298ZM15.7131 11.5617C16.3446 11.5617 16.8538 11.3555 17.2405 10.943C17.6271 10.5177 17.8205 9.98275 17.8205 9.33829C17.8205 8.90005 17.7303 8.51337 17.5498 8.17825C17.3822 7.84312 17.1373 7.58533 16.8151 7.40488C16.5058 7.21154 16.1449 7.11487 15.7324 7.11487C15.3199 7.11487 14.9526 7.21154 14.6304 7.40488C14.321 7.58533 14.0697 7.84312 13.8763 8.17825C13.6959 8.51337 13.6057 8.90005 13.6057 9.33829C13.6057 9.76364 13.6959 10.1439 13.8763 10.479C14.0568 10.8141 14.3081 11.0784 14.6304 11.2717C14.9526 11.465 15.3135 11.5617 15.7131 11.5617ZM17.7045 14.0365V11.5037L18.1492 9.22228L17.7045 6.94087V4.64012H20.6046V14.0365H17.7045Z" fill="white"/>
<path d="M4.703 14.0365V0.580059H7.73844V14.0365H4.703ZM0.430176 3.03548V0.386719H12.0113V3.03548H0.430176Z" fill="white"/>
</svg>
