<?xml version="1.0" encoding="utf-8"?>
<!-- Generator: Adobe Illustrator 15.0.0, SVG Export Plug-In . SVG Version: 6.00 Build 0)  -->
<!DOCTYPE svg PUBLIC "-//W3C//DTD SVG 1.1//EN" "http://www.w3.org/Graphics/SVG/1.1/DTD/svg11.dtd" [
	<!ENTITY ns_flows "http://ns.adobe.com/Flows/1.0/">
	<!ENTITY ns_extend "http://ns.adobe.com/Extensibility/1.0/">
	<!ENTITY ns_ai "http://ns.adobe.com/AdobeIllustrator/10.0/">
	<!ENTITY ns_graphs "http://ns.adobe.com/Graphs/1.0/">
]>
<svg version="1.1" id="Layer_1" xmlns:x="&ns_extend;" xmlns:i="&ns_ai;" xmlns:graph="&ns_graphs;"
	 xmlns="http://www.w3.org/2000/svg" xmlns:xlink="http://www.w3.org/1999/xlink" xmlns:a="http://ns.adobe.com/AdobeSVGViewerExtensions/3.0/"
	 x="0px" y="0px" width="64px" height="64px" viewBox="0 0 64 64" enable-background="new 0 0 64 64" xml:space="preserve">
<path fill="#A87863" d="M24.864,8.923c4.18-5.778,11.022-6.799,14.521-6.916c1.582-0.054,1.891,0.204,1.002,1.21
	c-1.305,1.481-2.557,3.663-3.279,6.66C36.203,13.597,23.078,11.399,24.864,8.923z"/>
<path fill="#A87863" d="M27.387,7.976c5.453-4.594,12.337-3.917,15.76-3.184c1.544,0.333,1.785,0.657,0.678,1.419
	c-1.624,1.118-3.367,2.932-4.795,5.659C37.254,15.261,25.053,9.94,27.387,7.976z"/>
<path fill="#A87863" d="M18.11,8.113c2.759-2.097,8.284-4.856,12.331-5.874c1.533-0.386,1.881-0.296,1.293,0.906
	c-0.863,1.77-1.485,4.202-1.383,7.277C30.476,14.244,15.686,9.956,18.11,8.113z"/>
<path fill="#785647" d="M59.422,39.529c8.541-4.907,4.486-23.824-6.834-17.024C48.043,25.235,54.824,42.171,59.422,39.529z"/>
<radialGradient id="SVGID_1_" cx="1092.335" cy="-893.4346" r="8.572" gradientTransform="matrix(0 0.9308 1.1711 0 1107.3116 -985.6353)" gradientUnits="userSpaceOnUse">
	<stop  offset="0.2606" style="stop-color:#EBBB96"/>
	<stop  offset="0.4854" style="stop-color:#E7B792"/>
	<stop  offset="0.7285" style="stop-color:#DAAA85"/>
	<stop  offset="0.9795" style="stop-color:#C69470"/>
	<stop  offset="1" style="stop-color:#C4926E"/>
	<a:midPointStop  offset="0.2606" style="stop-color:#EBBB96"/>
	<a:midPointStop  offset="0.6911" style="stop-color:#EBBB96"/>
	<a:midPointStop  offset="1" style="stop-color:#C4926E"/>
</radialGradient>
<path opacity="0.7" fill="url(#SVGID_1_)" d="M58.766,37.757c6.209-4.208,3.031-18.552-3.906-12.188
	C52.256,27.959,55.84,39.74,58.766,37.757z"/>
<path fill="#785647" d="M4.578,39.529c-8.541-4.907-4.486-23.824,6.834-17.024C15.957,25.235,9.176,42.171,4.578,39.529z"/>
<radialGradient id="SVGID_2_" cx="1092.335" cy="-1035.2354" r="8.572" gradientTransform="matrix(0 0.9308 -1.1711 0 -1209.3751 -985.6353)" gradientUnits="userSpaceOnUse">
	<stop  offset="0.2606" style="stop-color:#EBBB96"/>
	<stop  offset="0.4854" style="stop-color:#E7B792"/>
	<stop  offset="0.7285" style="stop-color:#DAAA85"/>
	<stop  offset="0.9795" style="stop-color:#C69470"/>
	<stop  offset="1" style="stop-color:#C4926E"/>
	<a:midPointStop  offset="0.2606" style="stop-color:#EBBB96"/>
	<a:midPointStop  offset="0.6911" style="stop-color:#EBBB96"/>
	<a:midPointStop  offset="1" style="stop-color:#C4926E"/>
</radialGradient>
<path opacity="0.7" fill="url(#SVGID_2_)" d="M5.234,37.757c-6.209-4.208-3.031-18.552,3.906-12.188
	C11.744,27.959,8.16,39.74,5.234,37.757z"/>
<path fill="#A87863" d="M57,34.573C57,6.575,38.952,4.353,32,4.353S7,6.575,7,34.573C7,45.747,57,45.748,57,34.573z"/>
<path fill="#916856" d="M59.424,35.561C52.865,2.787,40.955,14.845,32,14.845S11.135,2.787,4.576,35.561
	C1.379,51.535,13.377,51.334,17.055,54.27C21.623,57.916,25.914,62,32,62s10.377-4.084,14.945-7.73
	C50.623,51.334,62.621,51.535,59.424,35.561z"/>
<radialGradient id="SVGID_3_" cx="32" cy="41.8604" r="13.2817" gradientTransform="matrix(1 0 0 1.0495 0 2.4759)" gradientUnits="userSpaceOnUse">
	<stop  offset="0" style="stop-color:#EBBB96"/>
	<stop  offset="1" style="stop-color:#EBBB96"/>
	<a:midPointStop  offset="0" style="stop-color:#EBBB96"/>
	<a:midPointStop  offset="0.5" style="stop-color:#EBBB96"/>
	<a:midPointStop  offset="1" style="stop-color:#EBBB96"/>
</radialGradient>
<ellipse fill="url(#SVGID_3_)" cx="32" cy="46.408" rx="13.281" ry="13.939"/>
<radialGradient id="SVGID_4_" cx="41" cy="29.7651" r="15.0002" gradientTransform="matrix(1 0 0 1.0495 0 2.4759)" gradientUnits="userSpaceOnUse">
	<stop  offset="0" style="stop-color:#EBBB96"/>
	<stop  offset="1" style="stop-color:#EBBB96"/>
	<a:midPointStop  offset="0" style="stop-color:#EBBB96"/>
	<a:midPointStop  offset="0.5" style="stop-color:#EBBB96"/>
	<a:midPointStop  offset="1" style="stop-color:#EBBB96"/>
</radialGradient>
<ellipse fill="url(#SVGID_4_)" cx="41" cy="33.715" rx="15" ry="15.742"/>
<radialGradient id="SVGID_5_" cx="23" cy="29.7651" r="15.0002" gradientTransform="matrix(1 0 0 1.0495 0 2.4759)" gradientUnits="userSpaceOnUse">
	<stop  offset="0" style="stop-color:#EBBB96"/>
	<stop  offset="1" style="stop-color:#EBBB96"/>
	<a:midPointStop  offset="0" style="stop-color:#EBBB96"/>
	<a:midPointStop  offset="0.5" style="stop-color:#EBBB96"/>
	<a:midPointStop  offset="1" style="stop-color:#EBBB96"/>
</radialGradient>
<ellipse fill="url(#SVGID_5_)" cx="23" cy="33.715" rx="15" ry="15.742"/>
<path fill="#A87863" d="M36.654,43.064c0.572-2.239-4.857,2.011-3.346,2.326C35.512,45.851,36.398,44.071,36.654,43.064z"/>
<path fill="#A87863" d="M27.344,43.064c-0.568-2.239,4.859,2.011,3.346,2.326C28.488,45.849,27.6,44.071,27.344,43.064z"/>
<path fill="#785647" d="M44.924,28.838c-5.318,0-7.401,4.506-6.938,8.021c0.346,2.612,13.538,2.612,13.877,0
	C52.358,33.056,49.782,28.838,44.924,28.838z"/>
<path fill="#FFFFFF" d="M44.926,30.09c-3.834,0-6.939,2.855-6.939,6.374c0,3.041,3.105,6.374,6.939,6.374s6.938-3.886,6.938-6.374
	C51.863,32.945,48.76,30.09,44.926,30.09z"/>
<ellipse fill="#1A1626" cx="44.258" cy="36.401" rx="5.181" ry="5.073"/>
<path fill="#FFFFFF" d="M43.846,33.864c0,1.844-2.826,1.844-2.826,0C41.02,32.018,43.846,32.018,43.846,33.864z"/>
<path fill="#785647" d="M19.076,28.838c5.32,0,7.403,4.506,6.938,8.021c-0.346,2.612-13.536,2.612-13.877,0
	C11.644,33.056,14.218,28.838,19.076,28.838z"/>
<path fill="#FFFFFF" d="M19.076,30.09c3.834,0,6.938,2.855,6.938,6.374c0,3.041-3.104,6.374-6.938,6.374s-6.939-3.886-6.939-6.374
	C12.137,32.945,15.242,30.09,19.076,30.09z"/>
<ellipse fill="#1A1626" cx="19.742" cy="36.401" rx="5.181" ry="5.073"/>
<path fill="#FFFFFF" d="M20.154,33.864c0,1.844,2.826,1.844,2.826,0C22.98,32.018,20.154,32.018,20.154,33.864z"/>
<path fill="#785647" d="M19.765,22.952c-8.298,2.328-3.978,4.478,3.271,3.372C27.125,25.7,25.227,21.419,19.765,22.952z"/>
<path fill="#785647" d="M44.234,22.952c-5.461-1.533-7.36,2.748-3.27,3.372C48.213,27.43,52.533,25.28,44.234,22.952z"/>
<path fill="#FFDAAD" d="M13.789,30.01c3.76-7.01,7.193-12.445,9.538-8.622c3.393-2.927,6.194-0.648,5.026,1.554
	c1.986-0.356,3.124,1.056,1.816,3.443c-2.357,4.301-4.059,8.346-4.114,10.234C27.342,51.2,8.492,47.272,8.912,34.096
	c0.042-1.361,1.216-2.542,1.601-6.069C10.715,26.169,13.903,28.021,13.789,30.01z"/>
<path fill="#E3B182" d="M22.102,32.468c1.753-4.886,4.619-8.7,6.478-9.556c0.757-2.442-1.475-2.831-1.475-2.831
	C30.446,22.755,24.095,23.735,22.102,32.468z"/>
<path fill="#E3B182" d="M17.776,31.286c1.235-4.371,3.596-7.626,5.551-9.898c-0.251-1.221-1.649-1.258-1.649-1.258
	C23.861,21.665,18.647,24.349,17.776,31.286z"/>
<path fill="#E3B182" d="M30.118,23.229c2.01,2.828-4.531,7.112-4.936,13.231c-0.629,9.368-10.198,8.837-1.728,9.236
	c1.048-1.009,3.807-5.4,2.838-8.924C26.908,30.677,32.928,24.897,30.118,23.229z"/>
<path fill="#E3B182" d="M11.651,27.308c2.992,2.324,0.224,3.28,1.466,7.599c-0.2-2.545,0.4-4.153,0.797-5.125
	C13.49,27.599,11.651,27.308,11.651,27.308z"/>
<linearGradient id="SVGID_6_" gradientUnits="userSpaceOnUse" x1="-21.0586" y1="58.043" x2="-3.5361" y2="58.043" gradientTransform="matrix(0.9962 0.0872 -0.0872 0.9962 33.0839 -5.9147)">
	<stop  offset="0" style="stop-color:#A87863"/>
	<stop  offset="0.3009" style="stop-color:#A47561"/>
	<stop  offset="0.6127" style="stop-color:#976C59"/>
	<stop  offset="0.9284" style="stop-color:#835D4D"/>
	<stop  offset="1" style="stop-color:#7D594A"/>
	<a:midPointStop  offset="0" style="stop-color:#A87863"/>
	<a:midPointStop  offset="0.7" style="stop-color:#A87863"/>
	<a:midPointStop  offset="1" style="stop-color:#7D594A"/>
</linearGradient>
<path fill="url(#SVGID_6_)" d="M23.755,44.609c-3.264,3.89-6.758-7.602-8.399-1.865c-0.73,2.555-6.684-8.189-5.529-3.014
	C11.937,49.183,6,62,6,62h13.138c0,0,0.193-10.705,4.811-15.997C25.432,44.303,25.835,42.128,23.755,44.609z"/>
<path fill="#FFDAAD" d="M50.211,30.01c-3.76-7.01-7.193-12.445-9.538-8.622c-3.393-2.927-6.194-0.648-5.026,1.554
	c-1.986-0.356-3.124,1.056-1.816,3.443c2.357,4.301,4.059,8.346,4.114,10.234C36.658,51.2,55.508,47.272,55.088,34.096
	c-0.042-1.361-1.216-2.542-1.601-6.069C53.285,26.169,50.097,28.021,50.211,30.01z"/>
<path fill="#E3B182" d="M41.898,32.468c-1.753-4.886-4.619-8.7-6.478-9.556c-0.757-2.442,1.475-2.831,1.475-2.831
	C33.554,22.755,39.905,23.735,41.898,32.468z"/>
<path fill="#E3B182" d="M46.224,31.286c-1.235-4.371-3.596-7.626-5.551-9.898c0.251-1.221,1.649-1.258,1.649-1.258
	C40.139,21.665,45.353,24.349,46.224,31.286z"/>
<path fill="#E3B182" d="M33.882,23.229c-2.01,2.828,4.531,7.112,4.936,13.231c0.629,9.368,10.198,8.837,1.728,9.236
	c-1.048-1.009-3.807-5.4-2.838-8.924C37.092,30.677,31.072,24.897,33.882,23.229z"/>
<path fill="#E3B182" d="M52.349,27.308c-2.992,2.324-0.224,3.28-1.466,7.599c0.2-2.545-0.4-4.153-0.797-5.125
	C50.51,27.599,52.349,27.308,52.349,27.308z"/>
<linearGradient id="SVGID_7_" gradientUnits="userSpaceOnUse" x1="51.8574" y1="51.6602" x2="69.3799" y2="51.6602" gradientTransform="matrix(-0.9962 0.0872 0.0872 0.9962 104.1119 -5.9147)">
	<stop  offset="0" style="stop-color:#A87863"/>
	<stop  offset="0.3009" style="stop-color:#A47561"/>
	<stop  offset="0.6127" style="stop-color:#976C59"/>
	<stop  offset="0.9284" style="stop-color:#835D4D"/>
	<stop  offset="1" style="stop-color:#7D594A"/>
	<a:midPointStop  offset="0" style="stop-color:#A87863"/>
	<a:midPointStop  offset="0.7" style="stop-color:#A87863"/>
	<a:midPointStop  offset="1" style="stop-color:#7D594A"/>
</linearGradient>
<path fill="url(#SVGID_7_)" d="M40.245,44.609c3.264,3.89,6.758-7.602,8.399-1.865c0.73,2.555,6.684-8.189,5.529-3.014
	C52.063,49.183,58,62,58,62H44.862c0,0-0.193-10.705-4.811-15.997C38.568,44.303,38.165,42.128,40.245,44.609z"/>
<path fill="#1A1626" d="M40,47.944c0,5.917-3.582,8.205-8,8.205c-4.417,0-8-2.288-8-8.205c0,0,5.98,1.143,8,1.143
	C34.021,49.087,40,47.944,40,47.944z"/>
<path fill="#FFFFFF" d="M27.9,50.02c1.457,1.443,6.745,1.443,8.201,0c0.361-0.357,0.018-0.893,0.018-0.893h-8.234
	C27.885,49.127,27.538,49.662,27.9,50.02z"/>
<path fill="#ED7196" d="M37.422,54.982c-2.247-1.884-8.596-1.884-10.842,0c1.427,0.9,3.326,1.166,5.42,1.166
	S35.996,55.883,37.422,54.982z"/>
<path fill="#785647" d="M32,56.774c-5.48,0-8.625-3.219-8.625-8.83c0-0.211,0.107-0.408,0.285-0.523
	c0.176-0.114,0.4-0.132,0.594-0.048c0.025,0.011,2.531,1.089,7.746,1.089c5.216,0,7.723-1.078,7.746-1.089
	c0.193-0.084,0.418-0.066,0.595,0.048c0.177,0.115,0.284,0.313,0.284,0.523C40.625,53.556,37.482,56.774,32,56.774z M24.654,48.831
	c0.398,5.798,4.721,6.693,7.346,6.693c2.626,0,6.948-0.896,7.346-6.693c-1.203,0.355-3.613,0.881-7.346,0.881
	S25.857,49.187,24.654,48.831z"/>
</svg>
