<?xml version="1.0" encoding="utf-8"?>
<!-- Generator: Adobe Illustrator 24.1.2, SVG Export Plug-In . SVG Version: 6.00 Build 0)  -->
<svg version="1.1" id="Layer_1" xmlns="http://www.w3.org/2000/svg" xmlns:xlink="http://www.w3.org/1999/xlink" x="0px" y="0px"
	 viewBox="0 0 64 64" style="enable-background:new 0 0 64 64;" xml:space="preserve">
<style type="text/css">
	.st0{fill:url(#SVGID_1_);}
	.st1{fill:#FFFFFF;}
</style>
<linearGradient id="SVGID_1_" gradientUnits="userSpaceOnUse" x1="-62" y1="68" x2="-62" y2="8" gradientTransform="matrix(1 0 0 -1 94 70)">
	<stop  offset="0" style="stop-color:#00ABF1"/>
	<stop  offset="0.2292" style="stop-color:#00A7EF"/>
	<stop  offset="0.4667" style="stop-color:#009AE9"/>
	<stop  offset="0.7079" style="stop-color:#0086E0"/>
	<stop  offset="0.9504" style="stop-color:#0069D3"/>
	<stop  offset="1" style="stop-color:#0062D0"/>
</linearGradient>
<path class="st0" d="M62,54c0,4.4-3.6,8-8,8H10c-4.4,0-8-3.6-8-8V10c0-4.4,3.6-8,8-8h44c4.4,0,8,3.6,8,8V54z"/>
<path class="st1" d="M25.64,21.06c-2.59,0-4.55,0-6.35,0c-1.59,0-3.97,1.09-3.97,3.17v10.65c0,1.66,2.38,1.66,2.38,0v-8.27h0.79
	v23.82c0,2.08,3.57,2.08,3.57,0V35.34h0.79v15.09c0,2.08,3.57,2.08,3.57,0V26.62h0.79v8.27c0,1.66,2.38,1.66,2.38,0V24.24
	C29.61,22.15,27.23,21.06,25.64,21.06z"/>
<circle class="st1" cx="22.47" cy="16.08" r="4.08"/>
<circle class="st1" cx="41.15" cy="16.08" r="4.08"/>
<path class="st1" d="M48.34,33.57c0.57,1.56,2.8,0.74,2.24-0.81c0,0,0,0-3.22-8.83c-0.81-2.23-2.44-2.85-3.94-2.85
	c-2.59,0-2.74,0-4.53,0c-1.51,0-3.13,0.63-3.94,2.85c-3.22,8.83-3.22,8.83-3.22,8.83c-0.57,1.56,1.67,2.37,2.24,0.81l2.53-6.95h0.69
	l-4.53,14.16h4.53v9.65c0,2.09,3.57,2.09,3.57,0v-9.65h0.79v9.65c0,2.09,3.57,2.09,3.57,0v-9.65h4.53l-4.53-14.16h0.69L48.34,33.57z
	"/>
</svg>
