<?xml version="1.0" encoding="utf-8"?>
<!-- Generator: Adobe Illustrator 24.1.2, SVG Export Plug-In . SVG Version: 6.00 Build 0)  -->
<svg version="1.1" id="Layer_1" xmlns="http://www.w3.org/2000/svg" xmlns:xlink="http://www.w3.org/1999/xlink" x="0px" y="0px"
	 viewBox="0 0 64 64" style="enable-background:new 0 0 64 64;" xml:space="preserve">
<style type="text/css">
	.st0{fill:#D18900;}
	.st1{fill:#E69600;}
	.st2{fill:url(#SVGID_1_);}
	.st3{fill:url(#SVGID_2_);}
	.st4{fill:#FFF59B;}
	.st5{fill:#FFDD63;}
</style>
<ellipse class="st0" cx="32" cy="32.36" rx="30" ry="29.64"/>
<path class="st1" d="M2,32.38c0,2.39,0.29,4.71,0.83,6.94V25.44C2.29,27.67,2,29.99,2,32.38z"/>
<path class="st1" d="M4.19,24.11V43.5c0.26,0.63,0.53,1.25,0.83,1.86V24.11H4.19z"/>
<path class="st1" d="M6.38,24.11v23.7c0.27,0.43,0.55,0.86,0.83,1.27V24.11H6.38z"/>
<path class="st1" d="M8.57,24.11v26.78c0.27,0.33,0.55,0.66,0.83,0.98V24.11H8.57z"/>
<path class="st1" d="M10.77,24.11v29.21c0.27,0.27,0.55,0.53,0.83,0.79v-30H10.77z"/>
<path class="st1" d="M12.96,24.11v31.17c0.27,0.22,0.55,0.44,0.83,0.65V24.11H12.96z"/>
<path class="st1" d="M15.15,24.11V56.9c0.27,0.18,0.55,0.36,0.83,0.53V24.11H15.15z"/>
<path class="st1" d="M17.34,24.11v34.13c0.28,0.15,0.55,0.3,0.83,0.44V24.11H17.34z"/>
<path class="st1" d="M19.53,24.11v35.23c0.28,0.13,0.55,0.25,0.83,0.37v-35.6H19.53z"/>
<path class="st1" d="M21.72,24.11v36.13c0.28,0.1,0.56,0.19,0.83,0.28v-36.4H21.72z"/>
<path class="st1" d="M23.91,24.11v36.81c0.28,0.08,0.55,0.15,0.83,0.22V24.11H23.91z"/>
<path class="st1" d="M26.1,24.11v37.34c0.28,0.05,0.56,0.1,0.83,0.15V24.11H26.1z"/>
<path class="st1" d="M28.3,24.11v37.68c0.28,0.03,0.55,0.07,0.83,0.09V24.11H28.3z"/>
<path class="st1" d="M30.49,24.11v37.87c0.28,0.01,0.56,0.01,0.83,0.02V24.11H30.49z"/>
<path class="st1" d="M32.68,24.11V62c0.28-0.01,0.56-0.01,0.83-0.02V24.11H32.68z"/>
<path class="st1" d="M34.87,24.11v37.77c0.28-0.03,0.56-0.06,0.83-0.09V24.11H34.87z"/>
<path class="st1" d="M37.06,24.11v37.48c0.28-0.05,0.56-0.09,0.83-0.15V24.11H37.06z"/>
<path class="st1" d="M39.25,24.11v37.03c0.28-0.07,0.56-0.14,0.83-0.22V24.11H39.25z"/>
<path class="st1" d="M41.44,24.11v36.4c0.28-0.09,0.56-0.18,0.83-0.28V24.11H41.44z"/>
<path class="st1" d="M43.63,24.11v35.6c0.28-0.12,0.56-0.25,0.83-0.37V24.11H43.63z"/>
<path class="st1" d="M45.83,24.11v34.57c0.28-0.14,0.56-0.29,0.83-0.44V24.11H45.83z"/>
<path class="st1" d="M48.02,24.11v33.33c0.28-0.18,0.56-0.35,0.83-0.53V24.11H48.02z"/>
<path class="st1" d="M50.21,24.11v31.82c0.28-0.21,0.56-0.43,0.83-0.65V24.11H50.21z"/>
<path class="st1" d="M52.4,24.11v30c0.28-0.26,0.56-0.52,0.83-0.79V24.11H52.4z"/>
<path class="st1" d="M54.59,24.11v27.76c0.29-0.32,0.56-0.65,0.83-0.98V24.11H54.59z"/>
<path class="st1" d="M56.78,24.11v24.98c0.29-0.42,0.57-0.84,0.83-1.27v-23.7H56.78z"/>
<path class="st1" d="M58.97,24.11v21.25c0.3-0.61,0.58-1.23,0.83-1.86V24.11H58.97z"/>
<path class="st1" d="M61.17,39.32c0.54-2.23,0.83-4.55,0.83-6.94c0-2.39-0.29-4.71-0.83-6.94V39.32z"/>
<linearGradient id="SVGID_1_" gradientUnits="userSpaceOnUse" x1="32" y1="2" x2="32" y2="59.1011">
	<stop  offset="0" style="stop-color:#FFF59B"/>
	<stop  offset="0.1346" style="stop-color:#FFF18E"/>
	<stop  offset="0.3844" style="stop-color:#FFE76B"/>
	<stop  offset="0.7194" style="stop-color:#FFD734"/>
	<stop  offset="1" style="stop-color:#FFC800"/>
</linearGradient>
<ellipse class="st2" cx="32" cy="30.47" rx="30" ry="28.47"/>
<ellipse class="st0" cx="32" cy="30.22" rx="26" ry="24.67"/>
<linearGradient id="SVGID_2_" gradientUnits="userSpaceOnUse" x1="32" y1="55.3984" x2="32" y2="6.9308">
	<stop  offset="0" style="stop-color:#F7A300"/>
	<stop  offset="1" style="stop-color:#FFC800"/>
</linearGradient>
<ellipse class="st3" cx="32" cy="31.16" rx="25.54" ry="24.23"/>
<path class="st0" d="M24.64,49.86c-0.09-0.14-0.22-0.25-0.39-0.33c-0.18-0.09-0.37-0.13-0.55-0.12c-0.18,0.01-0.35,0.07-0.51,0.18
	c-0.16,0.11-0.29,0.25-0.39,0.44c-0.11,0.2-0.16,0.39-0.16,0.57c0,0.18,0.06,0.35,0.16,0.5c0.11,0.15,0.26,0.28,0.47,0.38
	c0.14,0.07,0.29,0.11,0.45,0.14c0.16,0.02,0.3,0.02,0.43-0.01l0.02-0.32c-0.13,0.03-0.26,0.03-0.38,0.01
	c-0.12-0.02-0.24-0.05-0.35-0.11c-0.2-0.1-0.33-0.23-0.37-0.4c-0.04-0.16,0-0.34,0.11-0.55l1.39,0.68l0.03-0.06
	c0.1-0.19,0.16-0.37,0.17-0.54C24.76,50.15,24.73,49.99,24.64,49.86z M23.6,49.78c0.16-0.07,0.33-0.06,0.5,0.02
	c0.16,0.08,0.26,0.2,0.29,0.34c0.02,0.11-0.01,0.24-0.07,0.38l-1.01-0.5C23.4,49.92,23.49,49.82,23.6,49.78z"/>
<path class="st0" d="M26.27,50.36c-0.16-0.06-0.32-0.08-0.46-0.07c-0.14,0.01-0.26,0.04-0.37,0.11c-0.1,0.06-0.18,0.15-0.22,0.27
	c-0.05,0.14-0.05,0.27,0.01,0.39c0.06,0.12,0.17,0.24,0.34,0.33l0.32,0.2c0.11,0.07,0.18,0.13,0.22,0.19
	c0.04,0.06,0.04,0.12,0.01,0.19c-0.03,0.08-0.09,0.13-0.18,0.15c-0.09,0.02-0.21,0-0.35-0.04c-0.14-0.05-0.27-0.11-0.37-0.19
	c-0.11-0.08-0.51-0.28-0.51-0.28v0.22c0.15,0.24,0.4,0.42,0.76,0.55c0.26,0.09,0.48,0.11,0.67,0.06c0.19-0.05,0.31-0.16,0.38-0.33
	c0.06-0.14,0.05-0.28,0-0.4c-0.06-0.12-0.18-0.24-0.36-0.35l-0.32-0.2c-0.1-0.06-0.16-0.12-0.19-0.17c-0.03-0.06-0.03-0.12,0-0.19
	c0.03-0.09,0.09-0.14,0.19-0.16c0.09-0.02,0.21-0.01,0.34,0.04c0.11,0.04,0.21,0.09,0.3,0.17c0.09,0.07,0.17,0.16,0.24,0.28
	l0.23-0.23v-0.22C26.92,50.66,26.41,50.42,26.27,50.36z"/>
<path class="st0" d="M28.21,50.29v-0.22l-0.6,0.76l-0.5-0.01v0.22l0.41,0.1l-0.28,1.04c-0.06,0.23-0.05,0.41,0.05,0.56
	c0.09,0.15,0.25,0.24,0.46,0.3c0.06,0.01,0.11,0.02,0.17,0.03c0.05,0.01,0.11,0.01,0.16,0l0.09-0.33v-0.22c0,0-0.19,0.21-0.23,0.19
	c-0.07-0.02-0.13-0.04-0.17-0.08c-0.05-0.04-0.08-0.08-0.1-0.15c-0.02-0.06-0.01-0.14,0.02-0.24l0.27-1.01l0.59,0.14l0.08-0.31
	v-0.22l-0.59,0.08L28.21,50.29z"/>
<polygon class="st0" points="28.65,53.19 29.16,53.27 29.25,52.79 29.25,52.57 28.65,52.97 "/>
<path class="st0" d="M32.65,52.32c0.19-0.18,0.32-0.35,0.4-0.5c0.08-0.15,0.12-0.31,0.13-0.48c0-0.16-0.03-0.3-0.11-0.42
	c-0.08-0.12-0.19-0.21-0.33-0.27c-0.14-0.07-0.31-0.1-0.51-0.1c-0.19,0-1.05,0.12-1.05,0.12v0.22l0.16,0.32
	c0.14-0.1,0.29-0.18,0.43-0.23c0.14-0.05,0.29-0.08,0.43-0.07c0.17,0,0.3,0.04,0.39,0.12c0.09,0.08,0.13,0.19,0.13,0.34
	c0,0.12-0.04,0.23-0.1,0.35c-0.06,0.12-0.17,0.24-0.31,0.39l-1.09,1.09l-0.01,0.32l2.03,0.03l0.01-0.35l-1.46-0.02L32.65,52.32z"/>
<path class="st0" d="M35.49,50.67c-0.22-0.23-0.51-0.32-0.87-0.28c-0.36,0.05-0.61,0.21-0.76,0.49c-0.15,0.28-0.19,0.66-0.12,1.15
	c0.07,0.49,0.22,0.85,0.44,1.08c0.22,0.23,0.51,0.32,0.87,0.27c0.36-0.05,0.61-0.21,0.76-0.49c0.15-0.28,0.19-0.66,0.12-1.15
	C35.86,51.26,35.72,50.9,35.49,50.67z M35.45,52.69c-0.08,0.2-0.23,0.31-0.45,0.34c-0.22,0.03-0.4-0.04-0.53-0.22
	c-0.13-0.17-0.23-0.46-0.28-0.86c-0.06-0.39-0.04-0.69,0.03-0.89c0.08-0.2,0.23-0.31,0.45-0.34c0.22-0.03,0.4,0.04,0.53,0.21
	c0.13,0.17,0.22,0.45,0.28,0.85C35.54,52.2,35.53,52.49,35.45,52.69z"/>
<polygon class="st0" points="38.1,52.35 37.35,49.86 36.45,50.39 36.45,50.61 36.56,50.99 37.06,50.47 37.67,52.47 37.02,52.43 
	37.02,52.65 37.12,52.98 38.86,52.51 38.86,52.29 "/>
<path class="st0" d="M41.37,50.82V50.6l-0.56,0.09l-0.86-1.81l-0.33,0.14l-0.47,2.19l0.14,0.51l1.26-0.54l0.27,0.56l0.4-0.17v-0.22
	L40.95,51L41.37,50.82z M39.53,51.23l0.3-1.55l0.56,1.18L39.53,51.23z"/>
<path class="st4" d="M24.64,49.64c-0.09-0.14-0.22-0.25-0.39-0.33c-0.18-0.09-0.37-0.13-0.55-0.12c-0.18,0.01-0.35,0.07-0.51,0.18
	c-0.16,0.11-0.29,0.25-0.39,0.44c-0.11,0.2-0.16,0.39-0.16,0.57c0,0.18,0.06,0.35,0.16,0.5c0.11,0.15,0.26,0.28,0.47,0.38
	c0.14,0.07,0.29,0.11,0.45,0.14c0.16,0.02,0.3,0.02,0.43-0.01l0.02-0.32c-0.13,0.03-0.26,0.03-0.38,0.01
	c-0.12-0.02-0.24-0.05-0.35-0.11c-0.2-0.1-0.33-0.23-0.37-0.4c-0.04-0.16,0-0.34,0.11-0.55l1.39,0.68l0.03-0.06
	c0.1-0.19,0.16-0.37,0.17-0.54C24.76,49.93,24.73,49.78,24.64,49.64z M23.6,49.56c0.16-0.07,0.33-0.06,0.5,0.02
	c0.16,0.08,0.26,0.2,0.29,0.34c0.02,0.11-0.01,0.24-0.07,0.38l-1.01-0.5C23.4,49.7,23.49,49.61,23.6,49.56z"/>
<path class="st4" d="M26.27,50.15c-0.16-0.06-0.32-0.08-0.46-0.07c-0.14,0.01-0.26,0.04-0.37,0.11c-0.1,0.06-0.18,0.15-0.22,0.27
	c-0.05,0.14-0.05,0.27,0.01,0.39c0.06,0.12,0.17,0.24,0.34,0.33l0.32,0.2c0.11,0.07,0.18,0.13,0.22,0.19
	c0.04,0.06,0.04,0.12,0.01,0.19c-0.03,0.08-0.09,0.13-0.18,0.15c-0.09,0.02-0.21,0-0.35-0.04c-0.14-0.05-0.27-0.11-0.37-0.19
	c-0.11-0.08-0.2-0.18-0.28-0.3l-0.24,0.24c0.15,0.24,0.4,0.42,0.76,0.55c0.26,0.09,0.48,0.11,0.67,0.06
	c0.19-0.05,0.31-0.16,0.38-0.33c0.06-0.14,0.05-0.28,0-0.4c-0.06-0.12-0.18-0.24-0.36-0.35l-0.32-0.2c-0.1-0.06-0.16-0.12-0.19-0.17
	c-0.03-0.06-0.03-0.12,0-0.19c0.03-0.09,0.09-0.14,0.19-0.16c0.09-0.02,0.21-0.01,0.34,0.04c0.11,0.04,0.21,0.09,0.3,0.17
	c0.09,0.07,0.17,0.16,0.24,0.28l0.23-0.23c-0.06-0.12-0.15-0.22-0.27-0.31C26.54,50.27,26.41,50.2,26.27,50.15z"/>
<path class="st4" d="M28.21,50.07l-0.46,0.04l-0.14,0.5l-0.41-0.1l-0.08,0.31l0.41,0.1l-0.28,1.04c-0.06,0.23-0.05,0.41,0.05,0.56
	c0.09,0.15,0.25,0.24,0.46,0.3c0.06,0.01,0.11,0.02,0.17,0.03c0.05,0.01,0.11,0.01,0.16,0l0.09-0.33c-0.05,0-0.09,0-0.12,0
	c-0.04,0-0.07-0.01-0.11-0.02c-0.07-0.02-0.13-0.04-0.17-0.08c-0.05-0.04-0.08-0.08-0.1-0.15c-0.02-0.06-0.01-0.14,0.02-0.24
	l0.27-1.01l0.59,0.14l0.08-0.31l-0.59-0.14L28.21,50.07z"/>
<polygon class="st4" points="28.65,52.97 29.16,53.06 29.25,52.57 28.74,52.48 "/>
<path class="st4" d="M32.65,52.1c0.19-0.18,0.32-0.35,0.4-0.5c0.08-0.15,0.12-0.31,0.13-0.48c0-0.16-0.03-0.3-0.11-0.42
	c-0.08-0.12-0.19-0.21-0.33-0.27c-0.14-0.07-0.31-0.1-0.51-0.1c-0.19,0-0.39,0.03-0.57,0.09c-0.19,0.06-0.35,0.14-0.47,0.25
	l0.16,0.32c0.14-0.1,0.29-0.18,0.43-0.23c0.14-0.05,0.29-0.08,0.43-0.07c0.17,0,0.3,0.04,0.39,0.12c0.09,0.08,0.13,0.19,0.13,0.34
	c0,0.12-0.04,0.23-0.1,0.35c-0.06,0.12-0.17,0.24-0.31,0.39l-1.09,1.09l-0.01,0.32l2.03,0.03l0.01-0.35l-1.46-0.02L32.65,52.1z"/>
<path class="st4" d="M35.49,50.45c-0.22-0.23-0.51-0.32-0.87-0.28c-0.36,0.05-0.61,0.21-0.76,0.49c-0.15,0.28-0.19,0.66-0.12,1.15
	c0.07,0.49,0.22,0.85,0.44,1.08c0.22,0.23,0.51,0.32,0.87,0.27c0.36-0.05,0.61-0.21,0.76-0.49c0.15-0.28,0.19-0.66,0.12-1.15
	C35.86,51.04,35.72,50.68,35.49,50.45z M35.45,52.47c-0.08,0.2-0.23,0.31-0.45,0.34c-0.22,0.03-0.4-0.04-0.53-0.22
	c-0.13-0.17-0.23-0.46-0.28-0.86c-0.06-0.39-0.04-0.69,0.03-0.89c0.08-0.2,0.23-0.31,0.45-0.34c0.22-0.03,0.4,0.04,0.53,0.21
	c0.13,0.17,0.22,0.45,0.28,0.85C35.54,51.98,35.53,52.28,35.45,52.47z"/>
<polygon class="st4" points="38.1,52.13 37.35,49.64 37.1,49.71 36.45,50.39 36.56,50.77 37.06,50.25 37.67,52.25 37.02,52.43 
	37.12,52.77 38.86,52.29 38.76,51.95 "/>
<path class="st4" d="M41.37,50.6l-0.15-0.31l-0.42,0.18l-0.86-1.81l-0.33,0.14l-0.47,2.41l0.14,0.29l1.26-0.54l0.27,0.56l0.4-0.17
	l-0.27-0.56L41.37,50.6z M39.53,51.01l0.3-1.55l0.56,1.18L39.53,51.01z"/>
<path class="st0" d="M17.66,17.31c0.03,0.07-0.34,0.24-0.34,0.24v0.26l0.37,0.26c0.25-0.19,0.42-0.36,0.5-0.52
	c0.08-0.15,0.12-0.5,0.05-0.64c-0.07-0.14-3.2-1.81-3.2-1.81v0.26l2.38,1.71C17.55,17.16,17.63,17.24,17.66,17.31z"/>
<path class="st0" d="M20.81,14.25c0.1-0.22,0.12-0.44,0.06-0.68c-0.05-0.24-0.19-0.47-0.4-0.7c-0.21-0.23-0.44-0.39-0.7-0.49
	c-0.25-0.1-0.51-0.13-0.78-0.09c-0.26,0.04-0.52,0.14-0.77,0.32c-0.25,0.17-0.42,0.37-0.52,0.59c-0.1,0.22-0.12,0.44-0.06,0.68
	c0.06,0.23,0.19,0.47,0.4,0.7c0.21,0.23,0.44,0.39,0.7,0.49c0.25,0.1,0.51,0.13,0.78,0.09c0.27-0.04,0.52-0.14,0.77-0.32
	C20.53,14.66,20.71,14.47,20.81,14.25z M19.99,14.53c-0.23,0.16-0.48,0.22-0.74,0.18c-0.26-0.05-0.51-0.2-0.76-0.46
	c-0.24-0.26-0.36-0.51-0.35-0.73c0.01-0.23,0.13-0.42,0.36-0.59c0.23-0.16,0.48-0.23,0.74-0.18c0.26,0.04,0.51,0.19,0.75,0.46
	c0.24,0.26,0.36,0.51,0.35,0.74C20.35,14.17,20.23,14.36,19.99,14.53z"/>
<polygon class="st0" points="23.67,12.92 24.2,12.69 24.2,12.43 23.66,11.7 24.03,9.66 24.03,9.4 23.18,11.42 21.09,10.62 
	21.09,10.88 23.12,11.91 "/>
<path class="st0" d="M28.35,11.51v-0.26l-0.21-0.9l0.82-0.12c0.34-0.05,0.6-0.16,0.77-0.34c0.17-0.17,0.23-0.38,0.19-0.63
	c-0.04-0.25-0.18-0.43-0.39-0.55c-0.22-0.12-2.25-0.15-2.25-0.15v0.26l0.49,2.77L28.35,11.51z M28.68,9.02
	c0.21-0.03,0.37-0.02,0.48,0.04c0.11,0.06,0.18,0.15,0.2,0.29c0.02,0.13-0.01,0.24-0.1,0.33c-0.09,0.09-0.23,0.15-0.44,0.18
	l-0.74,0.11l-0.15-0.84L28.68,9.02z"/>
<polygon class="st0" points="32.57,8.12 31.9,10.94 31.9,11.2 32.53,11.2 "/>
<polygon class="st0" points="35.88,9.7 34.62,8.2 34.62,8.46 35.46,10.01 33.92,10.96 33.92,11.22 34.59,11.33 35.71,10.43 
	36.33,11.61 37,11.72 37,11.46 36.12,10.12 37.62,8.95 37.62,8.69 "/>
<polygon class="st0" points="40.5,12.49 40.5,12.23 39.04,11.95 39.43,11.18 40.81,11.69 41,11.32 41,11.06 39.62,10.81 
	39.98,10.09 41.45,10.63 41.64,10.26 41.64,10 39.65,9.53 38.32,11.86 38.32,12.12 40.31,12.86 "/>
<polygon class="st0" points="42.49,13.5 44.1,11.53 44.1,11.26 41.72,13.29 41.72,13.56 43.44,14.59 43.72,14.24 43.72,13.98 "/>
<path class="st0" d="M45.02,15.84c0.08,0.11,0.18,0.22,0.29,0.32c0.18,0.17,0.37,0.29,0.56,0.37c0.19,0.07,0.37,0.1,0.55,0.08
	c0.18-0.02,0.34-0.09,0.48-0.21c0.1-0.08,0.17-0.17,0.21-0.26c0.04-0.09,0.04-0.19,0.03-0.3c-0.02-0.11-0.06-0.22-0.12-0.35
	c-0.06-0.12-0.14-0.26-0.24-0.4c-0.08-0.13-0.15-0.24-0.19-0.32c-0.04-0.09-0.06-0.17-0.05-0.23c0.01-0.07,0.05-0.13,0.11-0.18
	c0.11-0.09,0.24-0.12,0.39-0.1c0.14,0.03,0.29,0.1,0.43,0.24c0.12,0.11,0.21,0.23,0.28,0.36c0.07,0.13,0.1,0.28,0.12,0.44l0.45-0.13
	c0-0.1,0-0.26,0-0.26s-0.16-0.28-0.24-0.39c-0.08-0.11-0.16-0.21-0.27-0.31c-0.17-0.16-0.35-0.27-0.54-0.34
	c-0.19-0.07-0.37-0.09-0.55-0.06c-0.18,0.02-0.34,0.09-0.48,0.21c-0.1,0.09-0.17,0.17-0.22,0.27c-0.04,0.09-0.05,0.19-0.04,0.3
	c0.01,0.11,0.05,0.22,0.11,0.34c0.06,0.12,0.14,0.26,0.25,0.4c0.08,0.12,0.15,0.23,0.19,0.32c0.04,0.09,0.07,0.17,0.06,0.24
	c0,0.07-0.04,0.13-0.1,0.18c-0.11,0.09-0.23,0.11-0.37,0.08c-0.14-0.03-0.29-0.12-0.44-0.26c-0.14-0.13-0.25-0.26-0.32-0.4
	c-0.08-0.14-0.6-0.6-0.6-0.6v0.26c0.01,0.11,0.04,0.23,0.08,0.34C44.87,15.61,44.93,15.73,45.02,15.84z"/>
<polygon class="st0" points="17.08,47.35 18.29,47.08 18.36,45.9 18.26,45.62 16.98,47.07 "/>
<polygon class="st0" points="11.9,41.49 13.14,41.63 13.63,40.55 13.52,40.26 11.8,41.21 "/>
<polygon class="st0" points="50.38,20.41 51.61,20.55 52.1,19.47 52,19.18 50.27,20.13 "/>
<polygon class="st0" points="9.14,34.3 10.25,34.84 11.11,33.97 11,33.69 9.04,34.02 "/>
<polygon class="st0" points="52.89,26.98 54,27.52 54.86,26.65 54.75,26.37 52.79,26.7 "/>
<polygon class="st0" points="9.14,26.65 10,27.52 11.11,26.98 11,26.7 9.04,26.37 "/>
<polygon class="st0" points="52.89,33.98 53.75,34.84 54.86,34.3 54.75,34.02 52.79,33.69 "/>
<polygon class="st0" points="11.8,19.18 12.39,20.55 13.63,20.41 13.52,20.13 "/>
<polygon class="st0" points="50.27,40.26 50.86,41.63 52.1,41.49 52,41.21 "/>
<polygon class="st0" points="46.75,45.89 45.6,46.8 45.71,47.08 46.92,47.35 46.85,46.17 "/>
<polygon class="st4" points="16.98,47.07 18.19,46.8 18.26,45.62 17.05,45.89 "/>
<polygon class="st4" points="11.8,41.21 13.04,41.35 13.52,40.26 12.29,40.12 "/>
<polygon class="st4" points="50.27,20.13 51.51,20.27 52,19.18 50.76,19.04 "/>
<polygon class="st4" points="9.04,34.02 10.15,34.55 11,33.69 9.89,33.16 "/>
<polygon class="st4" points="52.79,26.7 53.9,27.23 54.75,26.37 53.64,25.83 "/>
<polygon class="st4" points="9.04,26.37 9.89,27.23 11,26.7 10.15,25.83 "/>
<polygon class="st4" points="52.79,33.69 53.64,34.55 54.75,34.02 53.9,33.16 "/>
<polygon class="st4" points="11.8,19.18 12.29,20.27 13.52,20.13 13.03,19.04 "/>
<polygon class="st4" points="50.27,40.26 50.76,41.35 52,41.21 51.51,40.12 "/>
<polygon class="st4" points="45.54,45.62 45.6,46.8 46.82,47.07 46.75,45.89 "/>
<path class="st4" d="M17.66,17.05c0.03,0.07,0.02,0.14-0.04,0.22c-0.06,0.08-0.16,0.17-0.3,0.29l0.37,0.26
	c0.25-0.19,0.42-0.36,0.5-0.52c0.08-0.15,0.09-0.3,0.02-0.44c-0.07-0.14-0.2-0.29-0.41-0.43l-2.38-1.71l-0.38,0.39l2.38,1.71
	C17.55,16.9,17.63,16.98,17.66,17.05z"/>
<path class="st4" d="M20.81,13.99c0.1-0.22,0.12-0.44,0.06-0.68c-0.05-0.24-0.19-0.47-0.4-0.7c-0.21-0.23-0.44-0.39-0.7-0.49
	c-0.25-0.1-0.51-0.13-0.78-0.09c-0.26,0.04-0.52,0.14-0.77,0.32c-0.25,0.17-0.42,0.37-0.52,0.59c-0.1,0.22-0.12,0.44-0.06,0.68
	c0.06,0.23,0.19,0.47,0.4,0.7c0.21,0.23,0.44,0.39,0.7,0.49c0.25,0.1,0.51,0.13,0.78,0.09c0.27-0.04,0.52-0.14,0.77-0.32
	C20.53,14.4,20.71,14.21,20.81,13.99z M19.99,14.26c-0.23,0.16-0.48,0.22-0.74,0.18c-0.26-0.05-0.51-0.2-0.76-0.46
	c-0.24-0.26-0.36-0.51-0.35-0.73c0.01-0.23,0.13-0.42,0.36-0.59c0.23-0.16,0.48-0.23,0.74-0.18c0.26,0.04,0.51,0.19,0.75,0.46
	c0.24,0.26,0.36,0.51,0.35,0.74C20.35,13.9,20.23,14.1,19.99,14.26z"/>
<polygon class="st4" points="23.67,12.65 24.2,12.43 23.66,11.43 24.03,9.4 23.42,9.65 23.18,11.15 21.7,10.37 21.09,10.62 
	23.12,11.65 "/>
<path class="st4" d="M28.35,11.25l-0.21-1.16l0.82-0.12c0.34-0.05,0.6-0.16,0.77-0.34C29.9,9.46,29.96,9.25,29.92,9
	c-0.04-0.25-0.18-0.43-0.39-0.55c-0.22-0.12-0.5-0.15-0.85-0.1l-1.4,0.2l0.49,2.77L28.35,11.25z M28.68,8.76
	c0.21-0.03,0.37-0.02,0.48,0.04c0.11,0.06,0.18,0.15,0.2,0.29c0.02,0.13-0.01,0.24-0.1,0.33c-0.09,0.09-0.23,0.15-0.44,0.18
	L28.08,9.7l-0.15-0.84L28.68,8.76z"/>
<polygon class="st4" points="32.57,8.12 31.98,8.12 31.9,10.94 32.49,10.94 "/>
<polygon class="st4" points="35.88,9.43 35.29,8.31 34.62,8.2 35.46,9.74 33.92,10.96 34.59,11.07 35.71,10.17 36.33,11.35 
	37,11.46 36.12,9.86 37.62,8.69 36.95,8.58 "/>
<polygon class="st4" points="40.5,12.23 39.04,11.69 39.43,10.92 40.81,11.43 41,11.06 39.62,10.55 39.98,9.83 41.45,10.37 
	41.64,10 39.65,9.27 38.32,11.86 40.31,12.59 "/>
<polygon class="st4" points="42.49,13.24 44.1,11.26 43.62,10.97 41.72,13.29 43.44,14.33 43.72,13.98 "/>
<path class="st4" d="M45.02,15.58c0.08,0.11,0.18,0.22,0.29,0.32c0.18,0.17,0.37,0.29,0.56,0.37c0.19,0.07,0.37,0.1,0.55,0.08
	c0.18-0.02,0.34-0.09,0.48-0.21c0.1-0.08,0.17-0.17,0.21-0.26c0.04-0.09,0.04-0.19,0.03-0.3c-0.02-0.11-0.06-0.22-0.12-0.35
	c-0.06-0.12-0.14-0.26-0.24-0.4c-0.08-0.13-0.15-0.24-0.19-0.32c-0.04-0.09-0.06-0.17-0.05-0.23c0.01-0.07,0.05-0.13,0.11-0.18
	c0.11-0.09,0.24-0.12,0.39-0.1c0.14,0.03,0.29,0.1,0.43,0.24c0.12,0.11,0.21,0.23,0.28,0.36c0.07,0.13,0.1,0.28,0.12,0.44l0.45-0.13
	c0-0.1-0.02-0.21-0.06-0.32c-0.04-0.11-0.1-0.22-0.18-0.33c-0.08-0.11-0.16-0.21-0.27-0.31c-0.17-0.16-0.35-0.27-0.54-0.34
	c-0.19-0.07-0.37-0.09-0.55-0.06c-0.18,0.03-0.34,0.09-0.48,0.21c-0.1,0.09-0.17,0.17-0.22,0.27c-0.04,0.09-0.05,0.19-0.04,0.3
	c0.01,0.11,0.05,0.22,0.11,0.34c0.06,0.12,0.14,0.26,0.25,0.4c0.08,0.12,0.15,0.23,0.19,0.32s0.07,0.17,0.06,0.24
	c0,0.07-0.04,0.13-0.1,0.18c-0.11,0.09-0.23,0.11-0.37,0.08c-0.14-0.03-0.29-0.12-0.44-0.26c-0.14-0.13-0.25-0.26-0.32-0.4
	c-0.08-0.14-0.13-0.29-0.15-0.47l-0.45,0.13c0.01,0.11,0.04,0.23,0.08,0.34C44.87,15.35,44.93,15.46,45.02,15.58z"/>
<path class="st0" d="M43.07,42.53V30.69h0.19v-0.79c0,0,0.33-0.34,0.19-0.56h0.31l0.42-0.56v-0.86h1.59c0.79,0,0.79-1.14,0-1.14
	H45.7v-0.99h0.57V24.9l0.95-0.78l-15.23-10.4l-15.22,10.4l0.95,0.78v0.89h0.57v0.99h-0.06c-0.79,0-0.79,1.14,0,1.14h1.59v0.86
	l0.42,0.56h0.31c-0.14,0.22,0.19,0.56,0.19,0.56v0.79h0.19v11.84l-4.66,0.79l0,0.37h31.46v-0.37L43.07,42.53z M29.87,42.53V30.69
	h0.19v-0.79c0,0,0.33-0.34,0.19-0.56h0.31l0.42-0.56v-0.86h2.03v0.86l0.42,0.56h0.31c-0.14,0.22,0.19,0.56,0.19,0.56v0.79h0.19
	v11.84H29.87z M39.61,28.77l0.42,0.56h0.31c-0.14,0.22,0.19,0.56,0.19,0.56v0.79h0.19v11.84h-4.25V30.69h0.19v-0.79
	c0,0,0.33-0.34,0.19-0.56h0.31l0.42-0.56v-0.86h2.03V28.77z M23.28,42.53V30.69h0.19v-0.79c0,0,0.33-0.34,0.19-0.56h0.31l0.42-0.56
	v-0.86h2.03v0.86l0.42,0.56h0.31c-0.14,0.22,0.19,0.56,0.19,0.56v0.79h0.19v11.84H23.28z"/>
<rect x="20.93" y="29" class="st4" width="2.35" height="9.54"/>
<rect x="20.74" y="29.99" class="st5" width="2.72" height="0.33"/>
<path class="st5" d="M24.39,28.41c-0.81,0.84-4.57,0-4.57,0v-1.39h4.57V28.41z"/>
<path class="st5" d="M23.46,29.53h-2.72c0,0-0.33-0.34-0.19-0.56c0.15-0.23,2.96-0.23,3.11,0C23.79,29.19,23.46,29.53,23.46,29.53z"
	/>
<polygon class="st4" points="23.97,28.97 20.24,28.97 19.82,28.41 24.39,28.41 "/>
<rect x="20.59" y="38.18" class="st5" width="3.03" height="0.33"/>
<path class="st4" d="M23.81,39.38c-1.91,0.45-3.42,0-3.42,0c-0.12-0.19,0.32-0.86,0.32-0.86h2.78
	C23.49,38.52,23.93,39.18,23.81,39.38z"/>
<rect x="20.22" y="39.38" class="st5" width="3.77" height="1.31"/>
<rect x="40.72" y="29" class="st4" width="2.35" height="9.54"/>
<rect x="40.54" y="29.99" class="st5" width="2.72" height="0.33"/>
<path class="st5" d="M44.18,28.41c-0.81,0.84-4.57,0-4.57,0v-1.39h4.57V28.41z"/>
<path class="st5" d="M43.26,29.53h-2.72c0,0-0.33-0.34-0.19-0.56c0.15-0.23,2.96-0.23,3.11,0C43.59,29.19,43.26,29.53,43.26,29.53z"
	/>
<polygon class="st4" points="43.76,28.97 40.03,28.97 39.61,28.41 44.18,28.41 "/>
<rect x="40.38" y="38.18" class="st5" width="3.03" height="0.33"/>
<path class="st4" d="M43.61,39.38c-1.91,0.45-3.42,0-3.42,0c-0.12-0.19,0.32-0.86,0.32-0.86h2.78
	C43.28,38.52,43.72,39.18,43.61,39.38z"/>
<rect x="40.01" y="39.38" class="st5" width="3.77" height="1.31"/>
<rect x="34.13" y="29" class="st4" width="2.35" height="9.54"/>
<rect x="33.94" y="29.99" class="st5" width="2.72" height="0.33"/>
<path class="st5" d="M37.58,28.41c-0.81,0.84-4.57,0-4.57,0v-1.39h4.57V28.41z"/>
<path class="st5" d="M36.66,29.53h-2.72c0,0-0.33-0.34-0.19-0.56c0.15-0.23,2.96-0.23,3.11,0C36.99,29.19,36.66,29.53,36.66,29.53z"
	/>
<polygon class="st4" points="37.16,28.97 33.43,28.97 33.01,28.41 37.58,28.41 "/>
<rect x="33.78" y="38.18" class="st5" width="3.03" height="0.33"/>
<path class="st4" d="M37.01,39.38c-1.91,0.45-3.42,0-3.42,0c-0.12-0.19,0.32-0.86,0.32-0.86h2.78
	C36.69,38.52,37.13,39.18,37.01,39.38z"/>
<rect x="33.41" y="39.38" class="st5" width="3.77" height="1.31"/>
<rect x="27.53" y="29" class="st4" width="2.35" height="9.54"/>
<rect x="27.34" y="29.99" class="st5" width="2.72" height="0.33"/>
<path class="st5" d="M30.98,28.41c-0.81,0.84-4.57,0-4.57,0v-1.39h4.57V28.41z"/>
<path class="st5" d="M30.06,29.53h-2.72c0,0-0.33-0.34-0.19-0.56c0.15-0.23,2.96-0.23,3.11,0C30.39,29.19,30.06,29.53,30.06,29.53z"
	/>
<polygon class="st4" points="30.57,28.97 26.84,28.97 26.42,28.41 30.98,28.41 "/>
<rect x="27.19" y="38.18" class="st5" width="3.03" height="0.33"/>
<path class="st4" d="M30.41,39.38c-1.91,0.45-3.42,0-3.42,0c-0.12-0.19,0.32-0.86,0.32-0.86h2.78
	C30.09,38.52,30.53,39.18,30.41,39.38z"/>
<rect x="26.82" y="39.38" class="st5" width="3.77" height="1.31"/>
<path class="st5" d="M47.23,42.53c-7.49,0-22.96,0-30.45,0c-0.26,0-0.51,0.25-0.51,0.52c0,0.07,0,0.27,0,0.27h31.47
	c0,0,0-0.2,0-0.27C47.73,42.78,47.49,42.53,47.23,42.53z"/>
<path class="st5" d="M45.2,40.95c-6.47,0-19.92,0-26.39,0c-0.26,0-0.51,0.25-0.51,0.53c0,0.07,0,0.26,0,0.26H45.7c0,0,0-0.2,0-0.26
	C45.7,41.21,45.46,40.95,45.2,40.95z"/>
<path class="st4" d="M46.23,41.74c-6.98,0-21.47,0-28.45,0c-0.26,0-0.49,0.25-0.49,0.52c0,0.07,0,0.27,0,0.27h29.44
	c0,0,0-0.2,0-0.27C46.72,41.99,46.48,41.74,46.23,41.74z"/>
<path class="st4" d="M44.18,40.16c-5.96,0-18.4,0-24.36,0c-0.26,0-0.51,0.25-0.51,0.53c0,0.07,0,0.26,0,0.26h25.38c0,0,0-0.2,0-0.26
	C44.69,40.42,44.44,40.16,44.18,40.16z"/>
<path class="st4" d="M45.77,27.55H18.23c-0.79,0-0.79-1.14,0-1.14h27.53C46.55,26.41,46.55,27.55,45.77,27.55z"/>
<polygon class="st4" points="31.99,13.36 16.77,23.76 17.73,24.53 31.99,14.78 46.27,24.53 47.23,23.76 "/>
<polygon class="st4" points="31.99,15.23 17.73,24.98 17.73,25.42 46.27,25.42 46.27,24.98 "/>
<polygon class="st5" points="31.99,16.14 20.14,24.47 43.86,24.47 "/>
<path class="st0" d="M31.52,23.7C31.52,23.7,31.52,23.7,31.52,23.7c-0.99,0-1.87-0.42-2.62-1.03c-0.07-0.06-0.13-0.15-0.13-0.25
	c0-0.1,0.04-0.29,0.13-0.35l0.68-0.53c0.06-0.07,0.16-0.12,0.26-0.12c0.1,0,0.2,0.05,0.26,0.13c0.38,0.35,0.88,0.55,1.42,0.55
	c0.16,0,0.32-0.02,0.47-0.05c0.66-0.15,1.2-0.61,1.43-1.21h-0.62c-0.01,0-0.03,0-0.04,0c-0.09,0-0.17-0.03-0.23-0.09
	c-0.07-0.07-0.11-0.17-0.09-0.27l0-0.6c-0.01-0.09,0.02-0.3,0.09-0.37c0.07-0.07,2.55-0.07,2.62-0.01c0.07,0.07,0.11,0.29,0.1,0.38
	l0,0.3c0,1.43-0.9,2.71-2.29,3.25C32.49,23.61,32.01,23.7,31.52,23.7z"/>
<path class="st4" d="M35.1,19.46c-0.06-0.06-0.15-0.09-0.24-0.07h-2.07c-0.09-0.01-0.18,0.02-0.24,0.07
	c-0.06,0.06-0.09,0.14-0.08,0.23v0.6c-0.01,0.08,0.02,0.17,0.08,0.23c0.06,0.06,0.15,0.09,0.24,0.07h0.69
	c-0.22,0.65-0.78,1.14-1.48,1.3c-0.7,0.16-1.44-0.04-1.94-0.52c-0.05-0.07-0.14-0.11-0.23-0.11c-0.09,0-0.17,0.04-0.23,0.11
	l-0.68,0.64c-0.07,0.05-0.11,0.13-0.11,0.21c0,0.08,0.05,0.16,0.11,0.21c1.12,0.92,2.62,1.29,3.99,0.75
	c1.37-0.54,2.26-1.81,2.26-3.21v-0.3C35.19,19.6,35.16,19.52,35.1,19.46z"/>
</svg>
