<svg width="1200" height="1201" viewBox="0 0 1200 1201" fill="none" xmlns="http://www.w3.org/2000/svg">
<g clip-path="url(#clip0_179_589)">
<path d="M493.875 120.952C500.436 113.884 510.936 103.564 523.206 100.417C497.138 97.0856 468.63 102.583 447.594 118.699C442.273 112.425 439.457 103.961 443.166 93.75C413.494 112.779 409.44 132.624 409.44 132.624C399.326 121.329 397.273 105.429 397.273 105.429C397.273 105.429 365.563 128.745 373.299 157.579C342.143 149.475 318.135 164.799 318.135 164.799C318.135 164.799 333.407 168.697 341.595 179.147C390.458 185.34 496.174 149.402 493.875 120.952Z" fill="#403429"/>
<path d="M200.029 582.313C249.831 588.392 285.756 756.628 254.483 801.013C250.088 807.24 224.415 817.127 205.41 777.943C194.865 756.263 164.469 738.135 155.057 693.384C142.973 636.036 150.516 576.27 200.029 582.313Z" fill="#FFD8B4"/>
<path d="M201.383 614.576C214.382 618.677 228.555 638.672 236.244 671.852C190.836 662 202.187 738.319 241.628 739.747C241.298 747.437 240.786 755.347 239.833 763.623C220.826 735.791 201.529 746.96 182.378 705.506C165.128 668.152 169.23 604.395 201.383 614.576Z" fill="#DEB38A"/>
<path d="M999.938 582.313C950.171 588.392 914.207 756.628 945.557 801.013C949.914 807.24 975.585 817.127 994.629 777.943C1005.17 756.262 1035.53 738.135 1044.94 693.384C1057.03 636.036 1049.49 576.232 999.938 582.313Z" fill="#FFD8B4"/>
<path d="M963.793 671.741C971.484 638.636 985.62 618.677 998.582 614.576C1030.77 604.357 1034.87 668.152 1017.62 705.506C998.509 746.961 979.176 735.791 960.169 763.624C959.216 755.31 958.704 747.401 958.374 739.71C997.412 737.842 1008.62 662.477 963.793 671.741Z" fill="#DEB38A"/>
<path d="M600.038 150C327.943 150 196.841 355.847 213.283 642.079C216.579 699.647 252.248 831.227 285.977 898.609C345.521 1017.55 500.94 1106.25 600 1106.25C698.987 1106.25 854.588 1017.55 914.061 898.609C947.828 831.227 983.496 699.647 986.756 642.079C1003.23 355.847 872.13 150 600.038 150Z" fill="#FFD8B4"/>
<path d="M663.428 802.918C656.726 798.231 640.943 805.446 600 805.446C559.058 805.446 543.274 798.231 536.535 802.918C528.516 808.594 541.333 834.156 600 834.156C658.667 834.156 671.522 808.594 663.428 802.918Z" fill="#DEB38A"/>
<path d="M600 894.14C538.659 876.086 447.729 902.711 447.729 902.711C482.336 940.43 507.714 989.319 600 989.319C705.688 989.319 723.707 933.765 752.306 902.711C752.306 902.711 661.303 876.013 600 894.14Z" fill="#DEB38A"/>
<path d="M470.544 909.083C534.887 963.062 664.746 963.392 729.456 909.083C660.9 912.013 539.612 912.049 470.544 909.083Z" fill="white"/>
<path d="M541.333 662.878C543.566 680.348 531.739 701.038 498.926 716.529C478.087 726.416 434.728 738.026 377.782 714.002C352.258 703.236 327.392 669.69 329.627 651.159C360.499 592.969 512.439 584.436 541.333 662.878Z" fill="white"/>
<path d="M438.244 602.014C471.205 602.014 497.936 628.747 497.936 661.706C497.936 694.667 471.205 721.399 438.244 721.399C405.25 721.399 378.553 694.667 378.553 661.706C378.553 628.747 405.25 602.014 438.244 602.014Z" fill="url(#paint0_linear_179_589)"/>
<path d="M408.398 660.607C408.398 701.917 468.09 701.917 468.09 660.607C468.09 622.266 408.398 622.266 408.398 660.607Z" fill="#1A1626"/>
<path d="M399.353 643.909C399.353 661.194 424.365 661.194 424.365 643.909C424.365 627.833 399.353 627.833 399.353 643.909Z" fill="#AB968C"/>
<path d="M541.626 665.187C517.382 587.256 352.112 598.755 329.627 651.16C337.939 584.108 520.972 566.383 541.626 665.187Z" fill="#DEB38A"/>
<path d="M658.704 662.878C656.434 680.348 668.299 701.038 701.111 716.529C721.913 726.416 765.272 738.026 822.253 714.002C847.778 703.236 872.644 669.69 870.411 651.159C839.574 592.969 687.561 584.436 658.704 662.878Z" fill="white"/>
<path d="M760.436 602.014C793.432 602.014 820.166 628.747 820.166 661.706C820.166 694.667 793.432 721.399 760.436 721.399C727.477 721.399 700.744 694.667 700.744 661.706C700.744 628.747 727.477 602.014 760.436 602.014Z" fill="url(#paint1_linear_179_589)"/>
<path d="M730.627 660.607C730.627 701.917 790.32 701.917 790.32 660.607C790.32 622.266 730.627 622.266 730.627 660.607Z" fill="#1A1626"/>
<path d="M721.545 643.909C721.545 661.194 746.557 661.194 746.557 643.909C746.557 627.833 721.545 627.833 721.545 643.909Z" fill="#AB968C"/>
<path d="M658.41 665.187C682.616 587.293 847.777 598.463 870.411 651.16C862.024 584.108 679.065 566.383 658.41 665.187Z" fill="#DEB38A"/>
<path d="M874.256 569.861C822.913 537.452 719.494 528.039 678.992 544.629C670.313 547.779 673.168 574.914 680.383 572.938C736.194 556.237 822.949 562.5 870.996 589.564C877.442 593.115 882.092 574.402 874.256 569.861Z" fill="#826D58"/>
<path d="M325.708 569.861C377.087 537.452 480.469 528.039 521.008 544.629C529.65 547.779 526.832 574.914 519.617 572.938C463.697 556.237 377.087 562.5 328.931 589.599C322.558 593.115 317.908 574.402 325.708 569.861Z" fill="#826D58"/>
<path d="M438.244 144.275C241.628 153.206 80.4076 445.837 229.982 740.315C229.982 740.315 241.958 483.602 350.319 406.991C344.441 455.441 331.515 489.635 331.515 489.635C331.515 489.635 437.844 472.835 531.482 413.07C520.569 466.582 491.273 504.87 491.273 504.87C491.273 504.87 684.649 477.917 742.069 386.895C742.069 386.895 779.955 466.592 873.705 524.013C873.705 524.013 879.564 464.248 866.636 421.969C958.556 512.387 969.36 739.912 969.36 739.912C1163.22 314.587 783.533 -41.6627 438.244 144.275Z" fill="#403429"/>
<path d="M454.236 153.206C448.376 185.096 449.548 219.081 449.548 219.081C449.548 219.081 430.631 186.137 434.314 159.315C393.298 190.956 337.048 253.65 337.048 253.65C337.048 253.65 363.788 206.681 393.688 172.401C196.033 230.212 156.969 474.744 204.499 605.22C227.381 483.647 290.959 386.312 399.352 314.437C399.352 314.437 395.057 402.787 356.256 451.112C470.878 431.405 568.494 341.346 566.151 250.721C587.183 334.901 583.532 407.165 536.138 473.962C633.24 464.002 743.723 376.404 748.084 297.009C768.038 376.404 791.835 431.556 854.432 473.769C854.432 387.831 812.04 307.389 812.04 307.389C812.04 307.389 937.65 387.382 986.722 627.868C1066.35 185.096 700.916 40.3686 477.088 134.706C529.823 137.049 558.533 148.821 558.533 148.821C558.533 148.821 499.354 143.494 454.236 153.206Z" fill="#4F4236"/>
<path d="M852.834 375.817L869.556 433.17C869.556 433.17 948.12 537.289 969.36 739.912C979.176 520.882 852.834 375.817 852.834 375.817Z" fill="#2E2319"/>
<path d="M746.486 384.9L742.191 397.401C742.191 397.401 775.993 481.384 873.703 524.014C794.533 473.962 746.486 384.9 746.486 384.9Z" fill="#2E2319"/>
<path d="M754.796 336.898C770.511 483.337 491.272 504.87 491.272 504.87C491.272 504.87 734.182 457.264 754.796 336.898Z" fill="#2E2319"/>
<path d="M555.407 383.185C506.97 474.745 331.515 489.636 331.515 489.636C331.515 489.636 467.126 458.338 555.407 383.185Z" fill="#2E2319"/>
<path d="M366.287 387.875C241.224 534.36 229.982 740.315 229.982 740.315C229.982 740.315 196.952 519.125 366.287 387.875Z" fill="#2E2319"/>
<path d="M986.722 627.868C1001.83 504.87 899.709 319.669 899.709 319.669C899.709 319.669 1048.76 442.09 986.722 627.868Z" fill="#403429"/>
<path d="M960.844 363.086C798.182 72.0092 523.614 127.28 523.614 127.28C523.614 127.28 843.298 41.5404 960.844 363.086Z" fill="#635547"/>
<path d="M390.039 430.888C510.486 333.924 491.272 197.987 491.272 197.987C491.272 197.987 553.26 344.471 390.039 430.888Z" fill="#635547"/>
<path d="M823.976 408.056C793.646 306.947 728.014 197.987 728.014 197.987C728.014 197.987 817.074 268.269 823.976 408.056Z" fill="#635547"/>
<path d="M934.243 430.888C891.458 334.389 800.526 221.717 800.526 221.717C800.526 221.717 909.842 293.076 934.243 430.888Z" fill="#635547"/>
<path d="M333.232 221.717C232.98 342.654 208.671 491.511 208.671 491.511C208.671 491.511 192.343 308.632 333.232 221.717Z" fill="#635547"/>
<path d="M581.066 448.346C658.012 323.12 593.794 201.733 593.794 201.733C593.794 201.733 695.782 319.704 581.066 448.346Z" fill="#635547"/>
<path d="M536.137 473.962C714.979 420.885 685.701 247.768 685.701 247.768C685.701 247.768 747.497 471.619 536.137 473.962Z" fill="#403429"/>
</g>
<defs>
<linearGradient id="paint0_linear_179_589" x1="438.247" y1="721.402" x2="438.247" y2="602.019" gradientUnits="userSpaceOnUse">
<stop stop-color="#A6694A"/>
<stop offset="1" stop-color="#4F2A1E"/>
</linearGradient>
<linearGradient id="paint1_linear_179_589" x1="760.454" y1="721.402" x2="760.454" y2="602.019" gradientUnits="userSpaceOnUse">
<stop stop-color="#A6694A"/>
<stop offset="1" stop-color="#4F2A1E"/>
</linearGradient>
<clipPath id="clip0_179_589">
<rect width="1200" height="1200" fill="white" transform="translate(0 0.349121)"/>
</clipPath>
</defs>
</svg>
