<?xml version="1.0" encoding="utf-8"?>
<!-- Generator: Adobe Illustrator 24.1.2, SVG Export Plug-In . SVG Version: 6.00 Build 0)  -->
<svg version="1.1" id="Layer_1" xmlns="http://www.w3.org/2000/svg" xmlns:xlink="http://www.w3.org/1999/xlink" x="0px" y="0px"
	 viewBox="0 0 64 64" style="enable-background:new 0 0 64 64;" xml:space="preserve">
<style type="text/css">
	.st0{fill:#FFAE2C;}
	.st1{fill:#DB942D;}
	.st2{fill:url(#SVGID_1_);}
	.st3{opacity:0.3;fill:#DB942D;}
	.st4{fill:#0FB4D4;}
</style>
<path class="st0" d="M39.07,60.24c3.71,1.2,4.85,2.15,6.33,3.56c2.21,2.1,17.55-13.23,15.39-15.39c-1.34-1.34-2.49-3.36-3.03-6.86
	L39.07,60.24z"/>
<path class="st1" d="M57.13,42.18c0.63,2.82,2.03,4.61,3.66,6.23c-1.29-2-2.11-4.22-2.51-7.38L57.13,42.18z"/>
<path class="st1" d="M39.62,59.69l-0.92,0.92c4,1.23,4.95,2,6.7,3.19C43.89,62.36,43.02,61.01,39.62,59.69z"/>
<radialGradient id="SVGID_1_" cx="401.7173" cy="-859.004" r="43.338" gradientTransform="matrix(0.7111 0.7196 -0.6044 0.612 -780.5485 258.5095)" gradientUnits="userSpaceOnUse">
	<stop  offset="0.6885" style="stop-color:#FFC940"/>
	<stop  offset="0.9694" style="stop-color:#FFB12E"/>
	<stop  offset="1" style="stop-color:#FFAE2C"/>
</radialGradient>
<path class="st2" d="M50.22,15.38c-5.34,5.86-0.27,16.26-9.65,8.44c-4.03-3.36-9.1-8.42-15.71-14.95c-3.45-3.4-7.72,1.87-5.36,4.4
	c4.5,4.84,14.55,15.08,14.55,15.08S17,12.11,16.04,11.17c-2.61-2.55-8.28,1.98-4.99,5.53c4.48,4.83,16.71,17.32,16.71,17.32
	S15.65,22.3,12.01,19.06c-2.52-2.24-6.78,1.96-4.16,5.04c2.51,2.95,14.52,15.35,14.52,15.35s-7.62-7.28-9.18-8.9
	c-2.77-2.89-6.24,1.41-4.07,4.35c3.04,4.12,6.97,8.08,9.91,11.59c11.55,13.76,20.99,20.28,31.22,7.91
	c16.81-13.12,1.88-20.32,6.98-39.43C58.06,11.9,53.21,12.08,50.22,15.38z"/>
<path class="st1" d="M51.33,13.48c-5.62,4.55-3.92,9.08-5.95,12.42c-1.05,1.73-12.75-10.42-18.69-16.29l-1.29-1.28
	c-2.03-2.01-4.4-1.48-5.86-0.06c-0.02,0.02-0.03,0.03-0.05,0.05c-1,1-1.59,2.46-1.37,3.8c-0.83-0.8-1.39-1.33-1.54-1.48
	c-1.71-1.67-4.27-0.96-5.82,0.55c-1.55,1.53-2.21,3.95-0.27,6.04c0.15,0.16,0.3,0.32,0.46,0.5c-1.11-0.2-2.32,0.2-3.31,1.17
	c-0.01,0.01-0.02,0.02-0.03,0.03c-1.35,1.35-2.02,3.69-0.34,5.67c0.71,0.84,2.17,2.41,3.89,4.24c-0.78,0.03-1.48,0.36-2,0.8
	c-1.47,1.26-2.11,3.73-0.64,5.72c1.97,2.66,4.27,5.22,6.49,7.69c1.24,1.38,2.4,2.68,3.46,3.93c8.34,9.93,18.07,19.52,28,11.61
	c-9.39,4.62-15.97,0.35-26.83-12.59c-1.07-1.27-2.24-2.58-3.49-3.96c-2.2-2.45-4.47-4.98-6.4-7.59c-0.94-1.27-0.55-2.88,0.38-3.67
	c0.78-0.67,1.71-0.56,2.53,0.3c1.55,1.62,10.11,9.43,10.11,9.43l0.63-0.99c0,0-12.49-13.02-14.96-15.92
	c-1.08-1.27-0.67-2.74,0.22-3.63c0.01-0.01,0.02-0.02,0.02-0.02c0.75-0.74,1.92-1.12,2.82-0.32c3.59,3.19,16.11,15.04,16.11,15.04
	l0.79-0.8c0,0-12.37-12.91-16.79-17.68c-1.33-1.44-0.8-2.96,0.15-3.91c0.01-0.01,0.02-0.02,0.03-0.03c1.04-1.02,2.72-1.49,3.72-0.52
	c0.95,0.93,18.32,17.15,18.32,17.15l0.78-0.8c0,0-10.11-10.55-14.55-15.33c-0.9-0.96-0.45-2.47,0.51-3.42
	C21,8.9,22.55,7.66,24.32,9.41l1.3,1.28c5.96,5.9,17.48,18.88,20.44,16.82c2.92-2.03,0.04-7.78,6.13-12.8
	c2.02-1.66,4.85-1.3,4.2,0.45c-4.6,12.54,5.24,18.32-0.63,33.81c8.29-12.43-2.16-23.06,2.06-33.32
	C59.19,12.31,54.43,10.97,51.33,13.48z"/>
<path class="st1" d="M35.62,27.75c-1.77,1.22-2.33,2.2-2.33,2.2s0.63-1.36-0.08-2.48C34.53,27.98,35.62,27.75,35.62,27.75z"/>
<path class="st1" d="M29.56,33.7c-1.41,0.59-2.33,2.33-2.33,2.33s0.3-1.68-0.2-2.77C28.35,33.77,29.56,33.7,29.56,33.7z"/>
<path class="st1" d="M22.04,39.15c0.98,1.15,0.55,2.63,0.55,2.63s0.6-1.11,1.92-2.99C24.51,38.79,23.26,39.56,22.04,39.15z"/>
<path class="st3" d="M43.07,31c-5.58,10.92,1.25,18.11,4.56,20.46c0.71,0.5,0.7,0.08,0.33-0.36c-2.7-3.26-7.77-10.2-4.46-19.97
	C43.82,30.2,43.52,30.11,43.07,31z"/>
<path class="st4" d="M44.42,15.03c-6.17-8.46-14.61-9.49-14.7-9.5c-1.67-0.19-1.48-2.02,0.2-1.83c0.38,0.04,9.33,1.14,15.98,10.24
	C46.85,15.25,45.43,16.42,44.42,15.03z"/>
<path class="st4" d="M45.75,8.49c-3.2-5.24-9.25-6.62-9.31-6.63c-1.66-0.37-1.28-2.16,0.39-1.8c0.28,0.06,6.87,1.55,10.48,7.48
	C48.14,8.88,46.64,9.94,45.75,8.49z"/>
<path class="st4" d="M7.45,43.64c4.35,9.53,12.42,12.23,12.5,12.25c1.6,0.52,1.04,2.28-0.56,1.76c-0.36-0.12-8.92-2.98-13.61-13.24
	C5.11,42.94,6.73,42.08,7.45,43.64z"/>
<path class="st4" d="M4.83,49.78c2.08,5.77,7.73,8.34,7.79,8.36c1.56,0.69,0.82,2.38-0.74,1.69c-0.26-0.11-6.42-2.89-8.77-9.42
	C2.56,48.92,4.25,48.18,4.83,49.78z"/>
</svg>
